<?xml version="1.0" encoding="utf-8" standalone="no"?>
<!DOCTYPE svg PUBLIC "-//W3C//DTD SVG 1.1//EN"
  "http://www.w3.org/Graphics/SVG/1.1/DTD/svg11.dtd">
<svg xmlns:xlink="http://www.w3.org/1999/xlink" width="460.8pt" height="345.6pt" viewBox="0 0 460.8 345.6" xmlns="http://www.w3.org/2000/svg" version="1.1">
 <metadata>
  <rdf:RDF xmlns:dc="http://purl.org/dc/elements/1.1/" xmlns:cc="http://creativecommons.org/ns#" xmlns:rdf="http://www.w3.org/1999/02/22-rdf-syntax-ns#">
   <cc:Work>
    <dc:type rdf:resource="http://purl.org/dc/dcmitype/StillImage"/>
    <dc:date>2023-08-05T16:51:51.519294</dc:date>
    <dc:format>image/svg+xml</dc:format>
    <dc:creator>
     <cc:Agent>
      <dc:title>Matplotlib v3.6.2, https://matplotlib.org/</dc:title>
     </cc:Agent>
    </dc:creator>
   </cc:Work>
  </rdf:RDF>
 </metadata>
 <defs>
  <style type="text/css">*{stroke-linejoin: round; stroke-linecap: butt}</style>
 </defs>
 <g id="figure_1">
  <g id="patch_1">
   <path d="M 0 345.6 
L 460.8 345.6 
L 460.8 0 
L 0 0 
z
" style="fill: #ffffff"/>
  </g>
  <g id="axes_1">
   <g id="patch_2">
    <path d="M 54.29 259.001175 
L 354.7076 259.001175 
L 354.7076 32.64 
L 54.29 32.64 
z
" style="fill: #ffffff"/>
   </g>
   <g id="patch_3">
    <path d="M 71.202398 172.208522 
L 93.010491 172.208522 
L 93.010491 161.539841 
L 71.202398 161.539841 
L 71.202398 172.208522 
z
" clip-path="url(#p127bf26b46)" style="fill: #58a35b; stroke: #4b4b4b; stroke-width: 1.5; stroke-linejoin: miter"/>
   </g>
   <g id="patch_4">
    <path d="M 93.455554 169.675305 
L 115.263646 169.675305 
L 115.263646 169.675305 
L 93.455554 169.675305 
L 93.455554 169.675305 
z
" clip-path="url(#p127bf26b46)" style="fill: #e6cc4c; stroke: #4b4b4b; stroke-width: 1.5; stroke-linejoin: miter"/>
   </g>
   <g id="patch_5">
    <path d="M 126.835287 164.947329 
L 148.64338 164.947329 
L 148.64338 154.727919 
L 126.835287 154.727919 
L 126.835287 164.947329 
z
" clip-path="url(#p127bf26b46)" style="fill: #58a35b; stroke: #4b4b4b; stroke-width: 1.5; stroke-linejoin: miter"/>
   </g>
   <g id="patch_6">
    <path d="M 149.088443 161.385757 
L 170.896535 161.385757 
L 170.896535 154.452587 
L 149.088443 154.452587 
L 149.088443 161.385757 
z
" clip-path="url(#p127bf26b46)" style="fill: #e6cc4c; stroke: #4b4b4b; stroke-width: 1.5; stroke-linejoin: miter"/>
   </g>
   <g id="patch_7">
    <path d="M 204.721332 227.033391 
L 226.529424 227.033391 
L 226.529424 214.692719 
L 204.721332 214.692719 
L 204.721332 227.033391 
z
" clip-path="url(#p127bf26b46)" style="fill: #e6cc4c; stroke: #4b4b4b; stroke-width: 1.5; stroke-linejoin: miter"/>
   </g>
   <g id="patch_8">
    <path d="M 238.101065 201.836214 
L 259.909157 201.836214 
L 259.909157 193.74017 
L 238.101065 193.74017 
L 238.101065 201.836214 
z
" clip-path="url(#p127bf26b46)" style="fill: #58a35b; stroke: #4b4b4b; stroke-width: 1.5; stroke-linejoin: miter"/>
   </g>
   <g id="patch_9">
    <path d="M 260.35422 200.011414 
L 282.162313 200.011414 
L 282.162313 190.931767 
L 260.35422 190.931767 
L 260.35422 200.011414 
z
" clip-path="url(#p127bf26b46)" style="fill: #e6cc4c; stroke: #4b4b4b; stroke-width: 1.5; stroke-linejoin: miter"/>
   </g>
   <g id="patch_10">
    <path d="M 293.733954 221.954494 
L 315.542046 221.954494 
L 315.542046 213.071417 
L 293.733954 213.071417 
L 293.733954 221.954494 
z
" clip-path="url(#p127bf26b46)" style="fill: #58a35b; stroke: #4b4b4b; stroke-width: 1.5; stroke-linejoin: miter"/>
   </g>
   <g id="patch_11">
    <path d="M 315.987109 220.596446 
L 337.795202 220.596446 
L 337.795202 209.032911 
L 315.987109 209.032911 
L 315.987109 220.596446 
z
" clip-path="url(#p127bf26b46)" style="fill: #e6cc4c; stroke: #4b4b4b; stroke-width: 1.5; stroke-linejoin: miter"/>
   </g>
   <g id="patch_12">
    <path d="M 93.233022 346.063166 
L 93.233022 346.063166 
L 93.233022 346.063166 
L 93.233022 346.063166 
z
" clip-path="url(#p127bf26b46)" style="fill: #58a35b; stroke: #4b4b4b; stroke-width: 0.75; stroke-linejoin: miter"/>
   </g>
   <g id="patch_13">
    <path d="M 93.233022 346.063166 
L 93.233022 346.063166 
L 93.233022 346.063166 
L 93.233022 346.063166 
z
" clip-path="url(#p127bf26b46)" style="fill: #e6cc4c; stroke: #4b4b4b; stroke-width: 0.75; stroke-linejoin: miter"/>
   </g>
   <g id="matplotlib.axis_1">
    <g id="xtick_1">
     <g id="line2d_1">
      <defs>
       <path id="mee9cbfe664" d="M 0 0 
L 0 3.5 
" style="stroke: #000000; stroke-width: 0.8"/>
      </defs>
      <g>
       <use xlink:href="#mee9cbfe664" x="93.233022" y="259.001175" style="stroke: #000000; stroke-width: 0.8"/>
      </g>
     </g>
     <g id="text_1">
      <!-- 2021-07-07 -->
      <g transform="translate(74.637219 312.468035) rotate(-45) scale(0.1 -0.1)">
       <defs>
        <path id="DejaVuSans-32" d="M 1228 531 
L 3431 531 
L 3431 0 
L 469 0 
L 469 531 
Q 828 903 1448 1529 
Q 2069 2156 2228 2338 
Q 2531 2678 2651 2914 
Q 2772 3150 2772 3378 
Q 2772 3750 2511 3984 
Q 2250 4219 1831 4219 
Q 1534 4219 1204 4116 
Q 875 4013 500 3803 
L 500 4441 
Q 881 4594 1212 4672 
Q 1544 4750 1819 4750 
Q 2544 4750 2975 4387 
Q 3406 4025 3406 3419 
Q 3406 3131 3298 2873 
Q 3191 2616 2906 2266 
Q 2828 2175 2409 1742 
Q 1991 1309 1228 531 
z
" transform="scale(0.015625)"/>
        <path id="DejaVuSans-30" d="M 2034 4250 
Q 1547 4250 1301 3770 
Q 1056 3291 1056 2328 
Q 1056 1369 1301 889 
Q 1547 409 2034 409 
Q 2525 409 2770 889 
Q 3016 1369 3016 2328 
Q 3016 3291 2770 3770 
Q 2525 4250 2034 4250 
z
M 2034 4750 
Q 2819 4750 3233 4129 
Q 3647 3509 3647 2328 
Q 3647 1150 3233 529 
Q 2819 -91 2034 -91 
Q 1250 -91 836 529 
Q 422 1150 422 2328 
Q 422 3509 836 4129 
Q 1250 4750 2034 4750 
z
" transform="scale(0.015625)"/>
        <path id="DejaVuSans-31" d="M 794 531 
L 1825 531 
L 1825 4091 
L 703 3866 
L 703 4441 
L 1819 4666 
L 2450 4666 
L 2450 531 
L 3481 531 
L 3481 0 
L 794 0 
L 794 531 
z
" transform="scale(0.015625)"/>
        <path id="DejaVuSans-2d" d="M 313 2009 
L 1997 2009 
L 1997 1497 
L 313 1497 
L 313 2009 
z
" transform="scale(0.015625)"/>
        <path id="DejaVuSans-37" d="M 525 4666 
L 3525 4666 
L 3525 4397 
L 1831 0 
L 1172 0 
L 2766 4134 
L 525 4134 
L 525 4666 
z
" transform="scale(0.015625)"/>
       </defs>
       <use xlink:href="#DejaVuSans-32"/>
       <use xlink:href="#DejaVuSans-30" x="63.623047"/>
       <use xlink:href="#DejaVuSans-32" x="127.246094"/>
       <use xlink:href="#DejaVuSans-31" x="190.869141"/>
       <use xlink:href="#DejaVuSans-2d" x="254.492188"/>
       <use xlink:href="#DejaVuSans-30" x="290.576172"/>
       <use xlink:href="#DejaVuSans-37" x="354.199219"/>
       <use xlink:href="#DejaVuSans-2d" x="417.822266"/>
       <use xlink:href="#DejaVuSans-30" x="453.90625"/>
       <use xlink:href="#DejaVuSans-37" x="517.529297"/>
      </g>
     </g>
    </g>
    <g id="xtick_2">
     <g id="line2d_2">
      <g>
       <use xlink:href="#mee9cbfe664" x="148.865911" y="259.001175" style="stroke: #000000; stroke-width: 0.8"/>
      </g>
     </g>
     <g id="text_2">
      <!-- 2021-07-27 -->
      <g transform="translate(130.270108 312.468035) rotate(-45) scale(0.1 -0.1)">
       <use xlink:href="#DejaVuSans-32"/>
       <use xlink:href="#DejaVuSans-30" x="63.623047"/>
       <use xlink:href="#DejaVuSans-32" x="127.246094"/>
       <use xlink:href="#DejaVuSans-31" x="190.869141"/>
       <use xlink:href="#DejaVuSans-2d" x="254.492188"/>
       <use xlink:href="#DejaVuSans-30" x="290.576172"/>
       <use xlink:href="#DejaVuSans-37" x="354.199219"/>
       <use xlink:href="#DejaVuSans-2d" x="417.822266"/>
       <use xlink:href="#DejaVuSans-32" x="453.90625"/>
       <use xlink:href="#DejaVuSans-37" x="517.529297"/>
      </g>
     </g>
    </g>
    <g id="xtick_3">
     <g id="line2d_3">
      <g>
       <use xlink:href="#mee9cbfe664" x="204.4988" y="259.001175" style="stroke: #000000; stroke-width: 0.8"/>
      </g>
     </g>
     <g id="text_3">
      <!-- 2021-08-03 -->
      <g transform="translate(185.902997 312.468035) rotate(-45) scale(0.1 -0.1)">
       <defs>
        <path id="DejaVuSans-38" d="M 2034 2216 
Q 1584 2216 1326 1975 
Q 1069 1734 1069 1313 
Q 1069 891 1326 650 
Q 1584 409 2034 409 
Q 2484 409 2743 651 
Q 3003 894 3003 1313 
Q 3003 1734 2745 1975 
Q 2488 2216 2034 2216 
z
M 1403 2484 
Q 997 2584 770 2862 
Q 544 3141 544 3541 
Q 544 4100 942 4425 
Q 1341 4750 2034 4750 
Q 2731 4750 3128 4425 
Q 3525 4100 3525 3541 
Q 3525 3141 3298 2862 
Q 3072 2584 2669 2484 
Q 3125 2378 3379 2068 
Q 3634 1759 3634 1313 
Q 3634 634 3220 271 
Q 2806 -91 2034 -91 
Q 1263 -91 848 271 
Q 434 634 434 1313 
Q 434 1759 690 2068 
Q 947 2378 1403 2484 
z
M 1172 3481 
Q 1172 3119 1398 2916 
Q 1625 2713 2034 2713 
Q 2441 2713 2670 2916 
Q 2900 3119 2900 3481 
Q 2900 3844 2670 4047 
Q 2441 4250 2034 4250 
Q 1625 4250 1398 4047 
Q 1172 3844 1172 3481 
z
" transform="scale(0.015625)"/>
        <path id="DejaVuSans-33" d="M 2597 2516 
Q 3050 2419 3304 2112 
Q 3559 1806 3559 1356 
Q 3559 666 3084 287 
Q 2609 -91 1734 -91 
Q 1441 -91 1130 -33 
Q 819 25 488 141 
L 488 750 
Q 750 597 1062 519 
Q 1375 441 1716 441 
Q 2309 441 2620 675 
Q 2931 909 2931 1356 
Q 2931 1769 2642 2001 
Q 2353 2234 1838 2234 
L 1294 2234 
L 1294 2753 
L 1863 2753 
Q 2328 2753 2575 2939 
Q 2822 3125 2822 3475 
Q 2822 3834 2567 4026 
Q 2313 4219 1838 4219 
Q 1578 4219 1281 4162 
Q 984 4106 628 3988 
L 628 4550 
Q 988 4650 1302 4700 
Q 1616 4750 1894 4750 
Q 2613 4750 3031 4423 
Q 3450 4097 3450 3541 
Q 3450 3153 3228 2886 
Q 3006 2619 2597 2516 
z
" transform="scale(0.015625)"/>
       </defs>
       <use xlink:href="#DejaVuSans-32"/>
       <use xlink:href="#DejaVuSans-30" x="63.623047"/>
       <use xlink:href="#DejaVuSans-32" x="127.246094"/>
       <use xlink:href="#DejaVuSans-31" x="190.869141"/>
       <use xlink:href="#DejaVuSans-2d" x="254.492188"/>
       <use xlink:href="#DejaVuSans-30" x="290.576172"/>
       <use xlink:href="#DejaVuSans-38" x="354.199219"/>
       <use xlink:href="#DejaVuSans-2d" x="417.822266"/>
       <use xlink:href="#DejaVuSans-30" x="453.90625"/>
       <use xlink:href="#DejaVuSans-33" x="517.529297"/>
      </g>
     </g>
    </g>
    <g id="xtick_4">
     <g id="line2d_4">
      <g>
       <use xlink:href="#mee9cbfe664" x="260.131689" y="259.001175" style="stroke: #000000; stroke-width: 0.8"/>
      </g>
     </g>
     <g id="text_4">
      <!-- 2021-08-10 -->
      <g transform="translate(241.535885 312.468035) rotate(-45) scale(0.1 -0.1)">
       <use xlink:href="#DejaVuSans-32"/>
       <use xlink:href="#DejaVuSans-30" x="63.623047"/>
       <use xlink:href="#DejaVuSans-32" x="127.246094"/>
       <use xlink:href="#DejaVuSans-31" x="190.869141"/>
       <use xlink:href="#DejaVuSans-2d" x="254.492188"/>
       <use xlink:href="#DejaVuSans-30" x="290.576172"/>
       <use xlink:href="#DejaVuSans-38" x="354.199219"/>
       <use xlink:href="#DejaVuSans-2d" x="417.822266"/>
       <use xlink:href="#DejaVuSans-31" x="453.90625"/>
       <use xlink:href="#DejaVuSans-30" x="517.529297"/>
      </g>
     </g>
    </g>
    <g id="xtick_5">
     <g id="line2d_5">
      <g>
       <use xlink:href="#mee9cbfe664" x="315.764578" y="259.001175" style="stroke: #000000; stroke-width: 0.8"/>
      </g>
     </g>
     <g id="text_5">
      <!-- 2021-08-17 -->
      <g transform="translate(297.168774 312.468035) rotate(-45) scale(0.1 -0.1)">
       <use xlink:href="#DejaVuSans-32"/>
       <use xlink:href="#DejaVuSans-30" x="63.623047"/>
       <use xlink:href="#DejaVuSans-32" x="127.246094"/>
       <use xlink:href="#DejaVuSans-31" x="190.869141"/>
       <use xlink:href="#DejaVuSans-2d" x="254.492188"/>
       <use xlink:href="#DejaVuSans-30" x="290.576172"/>
       <use xlink:href="#DejaVuSans-38" x="354.199219"/>
       <use xlink:href="#DejaVuSans-2d" x="417.822266"/>
       <use xlink:href="#DejaVuSans-31" x="453.90625"/>
       <use xlink:href="#DejaVuSans-37" x="517.529297"/>
      </g>
     </g>
    </g>
    <g id="text_6">
     <!-- Date -->
     <g transform="translate(185.37755 330.096096) scale(0.16 -0.16)">
      <defs>
       <path id="DejaVuSans-44" d="M 1259 4147 
L 1259 519 
L 2022 519 
Q 2988 519 3436 956 
Q 3884 1394 3884 2338 
Q 3884 3275 3436 3711 
Q 2988 4147 2022 4147 
L 1259 4147 
z
M 628 4666 
L 1925 4666 
Q 3281 4666 3915 4102 
Q 4550 3538 4550 2338 
Q 4550 1131 3912 565 
Q 3275 0 1925 0 
L 628 0 
L 628 4666 
z
" transform="scale(0.015625)"/>
       <path id="DejaVuSans-61" d="M 2194 1759 
Q 1497 1759 1228 1600 
Q 959 1441 959 1056 
Q 959 750 1161 570 
Q 1363 391 1709 391 
Q 2188 391 2477 730 
Q 2766 1069 2766 1631 
L 2766 1759 
L 2194 1759 
z
M 3341 1997 
L 3341 0 
L 2766 0 
L 2766 531 
Q 2569 213 2275 61 
Q 1981 -91 1556 -91 
Q 1019 -91 701 211 
Q 384 513 384 1019 
Q 384 1609 779 1909 
Q 1175 2209 1959 2209 
L 2766 2209 
L 2766 2266 
Q 2766 2663 2505 2880 
Q 2244 3097 1772 3097 
Q 1472 3097 1187 3025 
Q 903 2953 641 2809 
L 641 3341 
Q 956 3463 1253 3523 
Q 1550 3584 1831 3584 
Q 2591 3584 2966 3190 
Q 3341 2797 3341 1997 
z
" transform="scale(0.015625)"/>
       <path id="DejaVuSans-74" d="M 1172 4494 
L 1172 3500 
L 2356 3500 
L 2356 3053 
L 1172 3053 
L 1172 1153 
Q 1172 725 1289 603 
Q 1406 481 1766 481 
L 2356 481 
L 2356 0 
L 1766 0 
Q 1100 0 847 248 
Q 594 497 594 1153 
L 594 3053 
L 172 3053 
L 172 3500 
L 594 3500 
L 594 4494 
L 1172 4494 
z
" transform="scale(0.015625)"/>
       <path id="DejaVuSans-65" d="M 3597 1894 
L 3597 1613 
L 953 1613 
Q 991 1019 1311 708 
Q 1631 397 2203 397 
Q 2534 397 2845 478 
Q 3156 559 3463 722 
L 3463 178 
Q 3153 47 2828 -22 
Q 2503 -91 2169 -91 
Q 1331 -91 842 396 
Q 353 884 353 1716 
Q 353 2575 817 3079 
Q 1281 3584 2069 3584 
Q 2775 3584 3186 3129 
Q 3597 2675 3597 1894 
z
M 3022 2063 
Q 3016 2534 2758 2815 
Q 2500 3097 2075 3097 
Q 1594 3097 1305 2825 
Q 1016 2553 972 2059 
L 3022 2063 
z
" transform="scale(0.015625)"/>
      </defs>
      <use xlink:href="#DejaVuSans-44"/>
      <use xlink:href="#DejaVuSans-61" x="77.001953"/>
      <use xlink:href="#DejaVuSans-74" x="138.28125"/>
      <use xlink:href="#DejaVuSans-65" x="177.490234"/>
     </g>
    </g>
   </g>
   <g id="matplotlib.axis_2">
    <g id="ytick_1">
     <g id="line2d_6">
      <defs>
       <path id="m0eb84c42a7" d="M 0 0 
L -3.5 0 
" style="stroke: #000000; stroke-width: 0.8"/>
      </defs>
      <g>
       <use xlink:href="#m0eb84c42a7" x="54.29" y="241.588777" style="stroke: #000000; stroke-width: 0.8"/>
      </g>
     </g>
     <g id="text_7">
      <!-- 0.3 -->
      <g transform="translate(31.386875 245.387996) scale(0.1 -0.1)">
       <defs>
        <path id="DejaVuSans-2e" d="M 684 794 
L 1344 794 
L 1344 0 
L 684 0 
L 684 794 
z
" transform="scale(0.015625)"/>
       </defs>
       <use xlink:href="#DejaVuSans-30"/>
       <use xlink:href="#DejaVuSans-2e" x="63.623047"/>
       <use xlink:href="#DejaVuSans-33" x="95.410156"/>
      </g>
     </g>
    </g>
    <g id="ytick_2">
     <g id="line2d_7">
      <g>
       <use xlink:href="#m0eb84c42a7" x="54.29" y="206.763981" style="stroke: #000000; stroke-width: 0.8"/>
      </g>
     </g>
     <g id="text_8">
      <!-- 0.4 -->
      <g transform="translate(31.386875 210.5632) scale(0.1 -0.1)">
       <defs>
        <path id="DejaVuSans-34" d="M 2419 4116 
L 825 1625 
L 2419 1625 
L 2419 4116 
z
M 2253 4666 
L 3047 4666 
L 3047 1625 
L 3713 1625 
L 3713 1100 
L 3047 1100 
L 3047 0 
L 2419 0 
L 2419 1100 
L 313 1100 
L 313 1709 
L 2253 4666 
z
" transform="scale(0.015625)"/>
       </defs>
       <use xlink:href="#DejaVuSans-30"/>
       <use xlink:href="#DejaVuSans-2e" x="63.623047"/>
       <use xlink:href="#DejaVuSans-34" x="95.410156"/>
      </g>
     </g>
    </g>
    <g id="ytick_3">
     <g id="line2d_8">
      <g>
       <use xlink:href="#m0eb84c42a7" x="54.29" y="171.939185" style="stroke: #000000; stroke-width: 0.8"/>
      </g>
     </g>
     <g id="text_9">
      <!-- 0.5 -->
      <g transform="translate(31.386875 175.738404) scale(0.1 -0.1)">
       <defs>
        <path id="DejaVuSans-35" d="M 691 4666 
L 3169 4666 
L 3169 4134 
L 1269 4134 
L 1269 2991 
Q 1406 3038 1543 3061 
Q 1681 3084 1819 3084 
Q 2600 3084 3056 2656 
Q 3513 2228 3513 1497 
Q 3513 744 3044 326 
Q 2575 -91 1722 -91 
Q 1428 -91 1123 -41 
Q 819 9 494 109 
L 494 744 
Q 775 591 1075 516 
Q 1375 441 1709 441 
Q 2250 441 2565 725 
Q 2881 1009 2881 1497 
Q 2881 1984 2565 2268 
Q 2250 2553 1709 2553 
Q 1456 2553 1204 2497 
Q 953 2441 691 2322 
L 691 4666 
z
" transform="scale(0.015625)"/>
       </defs>
       <use xlink:href="#DejaVuSans-30"/>
       <use xlink:href="#DejaVuSans-2e" x="63.623047"/>
       <use xlink:href="#DejaVuSans-35" x="95.410156"/>
      </g>
     </g>
    </g>
    <g id="ytick_4">
     <g id="line2d_9">
      <g>
       <use xlink:href="#m0eb84c42a7" x="54.29" y="137.114389" style="stroke: #000000; stroke-width: 0.8"/>
      </g>
     </g>
     <g id="text_10">
      <!-- 0.6 -->
      <g transform="translate(31.386875 140.913607) scale(0.1 -0.1)">
       <defs>
        <path id="DejaVuSans-36" d="M 2113 2584 
Q 1688 2584 1439 2293 
Q 1191 2003 1191 1497 
Q 1191 994 1439 701 
Q 1688 409 2113 409 
Q 2538 409 2786 701 
Q 3034 994 3034 1497 
Q 3034 2003 2786 2293 
Q 2538 2584 2113 2584 
z
M 3366 4563 
L 3366 3988 
Q 3128 4100 2886 4159 
Q 2644 4219 2406 4219 
Q 1781 4219 1451 3797 
Q 1122 3375 1075 2522 
Q 1259 2794 1537 2939 
Q 1816 3084 2150 3084 
Q 2853 3084 3261 2657 
Q 3669 2231 3669 1497 
Q 3669 778 3244 343 
Q 2819 -91 2113 -91 
Q 1303 -91 875 529 
Q 447 1150 447 2328 
Q 447 3434 972 4092 
Q 1497 4750 2381 4750 
Q 2619 4750 2861 4703 
Q 3103 4656 3366 4563 
z
" transform="scale(0.015625)"/>
       </defs>
       <use xlink:href="#DejaVuSans-30"/>
       <use xlink:href="#DejaVuSans-2e" x="63.623047"/>
       <use xlink:href="#DejaVuSans-36" x="95.410156"/>
      </g>
     </g>
    </g>
    <g id="ytick_5">
     <g id="line2d_10">
      <g>
       <use xlink:href="#m0eb84c42a7" x="54.29" y="102.289592" style="stroke: #000000; stroke-width: 0.8"/>
      </g>
     </g>
     <g id="text_11">
      <!-- 0.7 -->
      <g transform="translate(31.386875 106.088811) scale(0.1 -0.1)">
       <use xlink:href="#DejaVuSans-30"/>
       <use xlink:href="#DejaVuSans-2e" x="63.623047"/>
       <use xlink:href="#DejaVuSans-37" x="95.410156"/>
      </g>
     </g>
    </g>
    <g id="ytick_6">
     <g id="line2d_11">
      <g>
       <use xlink:href="#m0eb84c42a7" x="54.29" y="67.464796" style="stroke: #000000; stroke-width: 0.8"/>
      </g>
     </g>
     <g id="text_12">
      <!-- 0.8 -->
      <g transform="translate(31.386875 71.264015) scale(0.1 -0.1)">
       <use xlink:href="#DejaVuSans-30"/>
       <use xlink:href="#DejaVuSans-2e" x="63.623047"/>
       <use xlink:href="#DejaVuSans-38" x="95.410156"/>
      </g>
     </g>
    </g>
    <g id="ytick_7">
     <g id="line2d_12">
      <g>
       <use xlink:href="#m0eb84c42a7" x="54.29" y="32.64" style="stroke: #000000; stroke-width: 0.8"/>
      </g>
     </g>
     <g id="text_13">
      <!-- 0.9 -->
      <g transform="translate(31.386875 36.439219) scale(0.1 -0.1)">
       <defs>
        <path id="DejaVuSans-39" d="M 703 97 
L 703 672 
Q 941 559 1184 500 
Q 1428 441 1663 441 
Q 2288 441 2617 861 
Q 2947 1281 2994 2138 
Q 2813 1869 2534 1725 
Q 2256 1581 1919 1581 
Q 1219 1581 811 2004 
Q 403 2428 403 3163 
Q 403 3881 828 4315 
Q 1253 4750 1959 4750 
Q 2769 4750 3195 4129 
Q 3622 3509 3622 2328 
Q 3622 1225 3098 567 
Q 2575 -91 1691 -91 
Q 1453 -91 1209 -44 
Q 966 3 703 97 
z
M 1959 2075 
Q 2384 2075 2632 2365 
Q 2881 2656 2881 3163 
Q 2881 3666 2632 3958 
Q 2384 4250 1959 4250 
Q 1534 4250 1286 3958 
Q 1038 3666 1038 3163 
Q 1038 2656 1286 2365 
Q 1534 2075 1959 2075 
z
" transform="scale(0.015625)"/>
       </defs>
       <use xlink:href="#DejaVuSans-30"/>
       <use xlink:href="#DejaVuSans-2e" x="63.623047"/>
       <use xlink:href="#DejaVuSans-39" x="95.410156"/>
      </g>
     </g>
    </g>
    <g id="text_14">
     <!-- EVI -->
     <g transform="translate(24.059375 158.708088) rotate(-90) scale(0.16 -0.16)">
      <defs>
       <path id="DejaVuSans-45" d="M 628 4666 
L 3578 4666 
L 3578 4134 
L 1259 4134 
L 1259 2753 
L 3481 2753 
L 3481 2222 
L 1259 2222 
L 1259 531 
L 3634 531 
L 3634 0 
L 628 0 
L 628 4666 
z
" transform="scale(0.015625)"/>
       <path id="DejaVuSans-56" d="M 1831 0 
L 50 4666 
L 709 4666 
L 2188 738 
L 3669 4666 
L 4325 4666 
L 2547 0 
L 1831 0 
z
" transform="scale(0.015625)"/>
       <path id="DejaVuSans-49" d="M 628 4666 
L 1259 4666 
L 1259 0 
L 628 0 
L 628 4666 
z
" transform="scale(0.015625)"/>
      </defs>
      <use xlink:href="#DejaVuSans-45"/>
      <use xlink:href="#DejaVuSans-56" x="63.183594"/>
      <use xlink:href="#DejaVuSans-49" x="131.591797"/>
     </g>
    </g>
   </g>
   <g id="line2d_13">
    <path d="M 82.106444 172.208522 
L 82.106444 187.921607 
" clip-path="url(#p127bf26b46)" style="fill: none; stroke: #4b4b4b; stroke-width: 1.5; stroke-linecap: square"/>
   </g>
   <g id="line2d_14">
    <path d="M 82.106444 161.539841 
L 82.106444 149.473256 
" clip-path="url(#p127bf26b46)" style="fill: none; stroke: #4b4b4b; stroke-width: 1.5; stroke-linecap: square"/>
   </g>
   <g id="line2d_15">
    <path d="M 76.654421 187.921607 
L 87.558468 187.921607 
" clip-path="url(#p127bf26b46)" style="fill: none; stroke: #4b4b4b; stroke-width: 1.5; stroke-linecap: square"/>
   </g>
   <g id="line2d_16">
    <path d="M 76.654421 149.473256 
L 87.558468 149.473256 
" clip-path="url(#p127bf26b46)" style="fill: none; stroke: #4b4b4b; stroke-width: 1.5; stroke-linecap: square"/>
   </g>
   <g id="line2d_17">
    <path d="M 104.3596 169.675305 
L 104.3596 169.675305 
" clip-path="url(#p127bf26b46)" style="fill: none; stroke: #4b4b4b; stroke-width: 1.5; stroke-linecap: square"/>
   </g>
   <g id="line2d_18">
    <path d="M 104.3596 169.675305 
L 104.3596 169.675305 
" clip-path="url(#p127bf26b46)" style="fill: none; stroke: #4b4b4b; stroke-width: 1.5; stroke-linecap: square"/>
   </g>
   <g id="line2d_19">
    <path d="M 98.907577 169.675305 
L 109.811623 169.675305 
" clip-path="url(#p127bf26b46)" style="fill: none; stroke: #4b4b4b; stroke-width: 1.5; stroke-linecap: square"/>
   </g>
   <g id="line2d_20">
    <path d="M 98.907577 169.675305 
L 109.811623 169.675305 
" clip-path="url(#p127bf26b46)" style="fill: none; stroke: #4b4b4b; stroke-width: 1.5; stroke-linecap: square"/>
   </g>
   <g id="line2d_21">
    <path d="M 137.739333 164.947329 
L 137.739333 179.33017 
" clip-path="url(#p127bf26b46)" style="fill: none; stroke: #4b4b4b; stroke-width: 1.5; stroke-linecap: square"/>
   </g>
   <g id="line2d_22">
    <path d="M 137.739333 154.727919 
L 137.739333 142.676697 
" clip-path="url(#p127bf26b46)" style="fill: none; stroke: #4b4b4b; stroke-width: 1.5; stroke-linecap: square"/>
   </g>
   <g id="line2d_23">
    <path d="M 132.28731 179.33017 
L 143.191356 179.33017 
" clip-path="url(#p127bf26b46)" style="fill: none; stroke: #4b4b4b; stroke-width: 1.5; stroke-linecap: square"/>
   </g>
   <g id="line2d_24">
    <path d="M 132.28731 142.676697 
L 143.191356 142.676697 
" clip-path="url(#p127bf26b46)" style="fill: none; stroke: #4b4b4b; stroke-width: 1.5; stroke-linecap: square"/>
   </g>
   <g id="line2d_25">
    <path d="M 159.992489 161.385757 
L 159.992489 168.850938 
" clip-path="url(#p127bf26b46)" style="fill: none; stroke: #4b4b4b; stroke-width: 1.5; stroke-linecap: square"/>
   </g>
   <g id="line2d_26">
    <path d="M 159.992489 154.452587 
L 159.992489 145.151164 
" clip-path="url(#p127bf26b46)" style="fill: none; stroke: #4b4b4b; stroke-width: 1.5; stroke-linecap: square"/>
   </g>
   <g id="line2d_27">
    <path d="M 154.540466 168.850938 
L 165.444512 168.850938 
" clip-path="url(#p127bf26b46)" style="fill: none; stroke: #4b4b4b; stroke-width: 1.5; stroke-linecap: square"/>
   </g>
   <g id="line2d_28">
    <path d="M 154.540466 145.151164 
L 165.444512 145.151164 
" clip-path="url(#p127bf26b46)" style="fill: none; stroke: #4b4b4b; stroke-width: 1.5; stroke-linecap: square"/>
   </g>
   <g id="line2d_29">
    <path d="M 215.625378 227.033391 
L 215.625378 242.611424 
" clip-path="url(#p127bf26b46)" style="fill: none; stroke: #4b4b4b; stroke-width: 1.5; stroke-linecap: square"/>
   </g>
   <g id="line2d_30">
    <path d="M 215.625378 214.692719 
L 215.625378 201.196742 
" clip-path="url(#p127bf26b46)" style="fill: none; stroke: #4b4b4b; stroke-width: 1.5; stroke-linecap: square"/>
   </g>
   <g id="line2d_31">
    <path d="M 210.173355 242.611424 
L 221.077401 242.611424 
" clip-path="url(#p127bf26b46)" style="fill: none; stroke: #4b4b4b; stroke-width: 1.5; stroke-linecap: square"/>
   </g>
   <g id="line2d_32">
    <path d="M 210.173355 201.196742 
L 221.077401 201.196742 
" clip-path="url(#p127bf26b46)" style="fill: none; stroke: #4b4b4b; stroke-width: 1.5; stroke-linecap: square"/>
   </g>
   <g id="line2d_33">
    <path d="M 249.005111 201.836214 
L 249.005111 213.302797 
" clip-path="url(#p127bf26b46)" style="fill: none; stroke: #4b4b4b; stroke-width: 1.5; stroke-linecap: square"/>
   </g>
   <g id="line2d_34">
    <path d="M 249.005111 193.74017 
L 249.005111 183.795851 
" clip-path="url(#p127bf26b46)" style="fill: none; stroke: #4b4b4b; stroke-width: 1.5; stroke-linecap: square"/>
   </g>
   <g id="line2d_35">
    <path d="M 243.553088 213.302797 
L 254.457134 213.302797 
" clip-path="url(#p127bf26b46)" style="fill: none; stroke: #4b4b4b; stroke-width: 1.5; stroke-linecap: square"/>
   </g>
   <g id="line2d_36">
    <path d="M 243.553088 183.795851 
L 254.457134 183.795851 
" clip-path="url(#p127bf26b46)" style="fill: none; stroke: #4b4b4b; stroke-width: 1.5; stroke-linecap: square"/>
   </g>
   <g id="line2d_37">
    <path d="M 271.258267 200.011414 
L 271.258267 210.786738 
" clip-path="url(#p127bf26b46)" style="fill: none; stroke: #4b4b4b; stroke-width: 1.5; stroke-linecap: square"/>
   </g>
   <g id="line2d_38">
    <path d="M 271.258267 190.931767 
L 271.258267 180.089622 
" clip-path="url(#p127bf26b46)" style="fill: none; stroke: #4b4b4b; stroke-width: 1.5; stroke-linecap: square"/>
   </g>
   <g id="line2d_39">
    <path d="M 265.806244 210.786738 
L 276.71029 210.786738 
" clip-path="url(#p127bf26b46)" style="fill: none; stroke: #4b4b4b; stroke-width: 1.5; stroke-linecap: square"/>
   </g>
   <g id="line2d_40">
    <path d="M 265.806244 180.089622 
L 276.71029 180.089622 
" clip-path="url(#p127bf26b46)" style="fill: none; stroke: #4b4b4b; stroke-width: 1.5; stroke-linecap: square"/>
   </g>
   <g id="line2d_41">
    <path d="M 304.638 221.954494 
L 304.638 234.923753 
" clip-path="url(#p127bf26b46)" style="fill: none; stroke: #4b4b4b; stroke-width: 1.5; stroke-linecap: square"/>
   </g>
   <g id="line2d_42">
    <path d="M 304.638 213.071417 
L 304.638 199.815011 
" clip-path="url(#p127bf26b46)" style="fill: none; stroke: #4b4b4b; stroke-width: 1.5; stroke-linecap: square"/>
   </g>
   <g id="line2d_43">
    <path d="M 299.185977 234.923753 
L 310.090023 234.923753 
" clip-path="url(#p127bf26b46)" style="fill: none; stroke: #4b4b4b; stroke-width: 1.5; stroke-linecap: square"/>
   </g>
   <g id="line2d_44">
    <path d="M 299.185977 199.815011 
L 310.090023 199.815011 
" clip-path="url(#p127bf26b46)" style="fill: none; stroke: #4b4b4b; stroke-width: 1.5; stroke-linecap: square"/>
   </g>
   <g id="line2d_45">
    <path d="M 326.891156 220.596446 
L 326.891156 232.582357 
" clip-path="url(#p127bf26b46)" style="fill: none; stroke: #4b4b4b; stroke-width: 1.5; stroke-linecap: square"/>
   </g>
   <g id="line2d_46">
    <path d="M 326.891156 209.032911 
L 326.891156 196.97486 
" clip-path="url(#p127bf26b46)" style="fill: none; stroke: #4b4b4b; stroke-width: 1.5; stroke-linecap: square"/>
   </g>
   <g id="line2d_47">
    <path d="M 321.439132 232.582357 
L 332.343179 232.582357 
" clip-path="url(#p127bf26b46)" style="fill: none; stroke: #4b4b4b; stroke-width: 1.5; stroke-linecap: square"/>
   </g>
   <g id="line2d_48">
    <path d="M 321.439132 196.97486 
L 332.343179 196.97486 
" clip-path="url(#p127bf26b46)" style="fill: none; stroke: #4b4b4b; stroke-width: 1.5; stroke-linecap: square"/>
   </g>
   <g id="line2d_49">
    <path d="M 137.739333 136.081005 
L 137.739333 133.882441 
L 159.992489 133.882441 
L 159.992489 136.081005 
" clip-path="url(#p127bf26b46)" style="fill: none; stroke: #333333; stroke-width: 1.5; stroke-linecap: square"/>
   </g>
   <g id="line2d_50">
    <path d="M 82.106444 138.611706 
L 82.106444 136.413142 
L 104.3596 136.413142 
L 104.3596 138.611706 
" clip-path="url(#p127bf26b46)" style="fill: none; stroke: #333333; stroke-width: 1.5; stroke-linecap: square"/>
   </g>
   <g id="line2d_51">
    <path d="M 249.005111 169.092763 
L 249.005111 166.894199 
L 271.258267 166.894199 
L 271.258267 169.092763 
" clip-path="url(#p127bf26b46)" style="fill: none; stroke: #333333; stroke-width: 1.5; stroke-linecap: square"/>
   </g>
   <g id="line2d_52">
    <path d="M 304.638 188.90135 
L 304.638 186.702786 
L 326.891156 186.702786 
L 326.891156 188.90135 
" clip-path="url(#p127bf26b46)" style="fill: none; stroke: #333333; stroke-width: 1.5; stroke-linecap: square"/>
   </g>
   <g id="line2d_53">
    <path d="M 71.202398 166.617782 
L 93.010491 166.617782 
" clip-path="url(#p127bf26b46)" style="fill: none; stroke: #4b4b4b; stroke-width: 1.5; stroke-linecap: square"/>
   </g>
   <g id="line2d_54">
    <path d="M 93.455554 169.675305 
L 115.263646 169.675305 
" clip-path="url(#p127bf26b46)" style="fill: none; stroke: #4b4b4b; stroke-width: 1.5; stroke-linecap: square"/>
   </g>
   <g id="line2d_55">
    <path d="M 126.835287 159.269834 
L 148.64338 159.269834 
" clip-path="url(#p127bf26b46)" style="fill: none; stroke: #4b4b4b; stroke-width: 1.5; stroke-linecap: square"/>
   </g>
   <g id="line2d_56">
    <path d="M 149.088443 158.974672 
L 170.896535 158.974672 
" clip-path="url(#p127bf26b46)" style="fill: none; stroke: #4b4b4b; stroke-width: 1.5; stroke-linecap: square"/>
   </g>
   <g id="line2d_57">
    <path d="M 204.721332 221.073578 
L 226.529424 221.073578 
" clip-path="url(#p127bf26b46)" style="fill: none; stroke: #4b4b4b; stroke-width: 1.5; stroke-linecap: square"/>
   </g>
   <g id="line2d_58">
    <path d="M 238.101065 197.484472 
L 259.909157 197.484472 
" clip-path="url(#p127bf26b46)" style="fill: none; stroke: #4b4b4b; stroke-width: 1.5; stroke-linecap: square"/>
   </g>
   <g id="line2d_59">
    <path d="M 260.35422 194.620725 
L 282.162313 194.620725 
" clip-path="url(#p127bf26b46)" style="fill: none; stroke: #4b4b4b; stroke-width: 1.5; stroke-linecap: square"/>
   </g>
   <g id="line2d_60">
    <path d="M 293.733954 217.722196 
L 315.542046 217.722196 
" clip-path="url(#p127bf26b46)" style="fill: none; stroke: #4b4b4b; stroke-width: 1.5; stroke-linecap: square"/>
   </g>
   <g id="line2d_61">
    <path d="M 315.987109 213.419575 
L 337.795202 213.419575 
" clip-path="url(#p127bf26b46)" style="fill: none; stroke: #4b4b4b; stroke-width: 1.5; stroke-linecap: square"/>
   </g>
   <g id="patch_14">
    <path d="M 54.29 259.001175 
L 54.29 32.64 
" style="fill: none; stroke: #000000; stroke-width: 0.8; stroke-linejoin: miter; stroke-linecap: square"/>
   </g>
   <g id="patch_15">
    <path d="M 354.7076 259.001175 
L 354.7076 32.64 
" style="fill: none; stroke: #000000; stroke-width: 0.8; stroke-linejoin: miter; stroke-linecap: square"/>
   </g>
   <g id="patch_16">
    <path d="M 54.29 259.001175 
L 354.7076 259.001175 
" style="fill: none; stroke: #000000; stroke-width: 0.8; stroke-linejoin: miter; stroke-linecap: square"/>
   </g>
   <g id="patch_17">
    <path d="M 54.29 32.64 
L 354.7076 32.64 
" style="fill: none; stroke: #000000; stroke-width: 0.8; stroke-linejoin: miter; stroke-linecap: square"/>
   </g>
   <g id="text_15">
    <!-- ns -->
    <g transform="translate(143.092474 130.802754) scale(0.1 -0.1)">
     <defs>
      <path id="DejaVuSans-6e" d="M 3513 2113 
L 3513 0 
L 2938 0 
L 2938 2094 
Q 2938 2591 2744 2837 
Q 2550 3084 2163 3084 
Q 1697 3084 1428 2787 
Q 1159 2491 1159 1978 
L 1159 0 
L 581 0 
L 581 3500 
L 1159 3500 
L 1159 2956 
Q 1366 3272 1645 3428 
Q 1925 3584 2291 3584 
Q 2894 3584 3203 3211 
Q 3513 2838 3513 2113 
z
" transform="scale(0.015625)"/>
      <path id="DejaVuSans-73" d="M 2834 3397 
L 2834 2853 
Q 2591 2978 2328 3040 
Q 2066 3103 1784 3103 
Q 1356 3103 1142 2972 
Q 928 2841 928 2578 
Q 928 2378 1081 2264 
Q 1234 2150 1697 2047 
L 1894 2003 
Q 2506 1872 2764 1633 
Q 3022 1394 3022 966 
Q 3022 478 2636 193 
Q 2250 -91 1575 -91 
Q 1294 -91 989 -36 
Q 684 19 347 128 
L 347 722 
Q 666 556 975 473 
Q 1284 391 1588 391 
Q 1994 391 2212 530 
Q 2431 669 2431 922 
Q 2431 1156 2273 1281 
Q 2116 1406 1581 1522 
L 1381 1569 
Q 847 1681 609 1914 
Q 372 2147 372 2553 
Q 372 3047 722 3315 
Q 1072 3584 1716 3584 
Q 2034 3584 2315 3537 
Q 2597 3491 2834 3397 
z
" transform="scale(0.015625)"/>
     </defs>
     <use xlink:href="#DejaVuSans-6e"/>
     <use xlink:href="#DejaVuSans-73" x="63.378906"/>
    </g>
   </g>
   <g id="text_16">
    <!-- ns -->
    <g transform="translate(87.459585 133.333454) scale(0.1 -0.1)">
     <use xlink:href="#DejaVuSans-6e"/>
     <use xlink:href="#DejaVuSans-73" x="63.378906"/>
    </g>
   </g>
   <g id="text_17">
    <!-- ns -->
    <g transform="translate(254.358251 163.814511) scale(0.1 -0.1)">
     <use xlink:href="#DejaVuSans-6e"/>
     <use xlink:href="#DejaVuSans-73" x="63.378906"/>
    </g>
   </g>
   <g id="text_18">
    <!-- * -->
    <g transform="translate(313.264578 183.623098) scale(0.1 -0.1)">
     <defs>
      <path id="DejaVuSans-2a" d="M 3009 3897 
L 1888 3291 
L 3009 2681 
L 2828 2375 
L 1778 3009 
L 1778 1831 
L 1422 1831 
L 1422 3009 
L 372 2375 
L 191 2681 
L 1313 3291 
L 191 3897 
L 372 4206 
L 1422 3572 
L 1422 4750 
L 1778 4750 
L 1778 3572 
L 2828 4206 
L 3009 3897 
z
" transform="scale(0.015625)"/>
     </defs>
     <use xlink:href="#DejaVuSans-2a"/>
    </g>
   </g>
   <g id="text_19">
    <!-- EVI by Date 2021 -->
    <g transform="translate(117.2363 26.64) scale(0.2 -0.2)">
     <defs>
      <path id="DejaVuSans-20" transform="scale(0.015625)"/>
      <path id="DejaVuSans-62" d="M 3116 1747 
Q 3116 2381 2855 2742 
Q 2594 3103 2138 3103 
Q 1681 3103 1420 2742 
Q 1159 2381 1159 1747 
Q 1159 1113 1420 752 
Q 1681 391 2138 391 
Q 2594 391 2855 752 
Q 3116 1113 3116 1747 
z
M 1159 2969 
Q 1341 3281 1617 3432 
Q 1894 3584 2278 3584 
Q 2916 3584 3314 3078 
Q 3713 2572 3713 1747 
Q 3713 922 3314 415 
Q 2916 -91 2278 -91 
Q 1894 -91 1617 61 
Q 1341 213 1159 525 
L 1159 0 
L 581 0 
L 581 4863 
L 1159 4863 
L 1159 2969 
z
" transform="scale(0.015625)"/>
      <path id="DejaVuSans-79" d="M 2059 -325 
Q 1816 -950 1584 -1140 
Q 1353 -1331 966 -1331 
L 506 -1331 
L 506 -850 
L 844 -850 
Q 1081 -850 1212 -737 
Q 1344 -625 1503 -206 
L 1606 56 
L 191 3500 
L 800 3500 
L 1894 763 
L 2988 3500 
L 3597 3500 
L 2059 -325 
z
" transform="scale(0.015625)"/>
     </defs>
     <use xlink:href="#DejaVuSans-45"/>
     <use xlink:href="#DejaVuSans-56" x="63.183594"/>
     <use xlink:href="#DejaVuSans-49" x="131.591797"/>
     <use xlink:href="#DejaVuSans-20" x="161.083984"/>
     <use xlink:href="#DejaVuSans-62" x="192.871094"/>
     <use xlink:href="#DejaVuSans-79" x="256.347656"/>
     <use xlink:href="#DejaVuSans-20" x="315.527344"/>
     <use xlink:href="#DejaVuSans-44" x="347.314453"/>
     <use xlink:href="#DejaVuSans-61" x="424.316406"/>
     <use xlink:href="#DejaVuSans-74" x="485.595703"/>
     <use xlink:href="#DejaVuSans-65" x="524.804688"/>
     <use xlink:href="#DejaVuSans-20" x="586.328125"/>
     <use xlink:href="#DejaVuSans-32" x="618.115234"/>
     <use xlink:href="#DejaVuSans-30" x="681.738281"/>
     <use xlink:href="#DejaVuSans-32" x="745.361328"/>
     <use xlink:href="#DejaVuSans-31" x="808.984375"/>
    </g>
   </g>
   <g id="legend_1">
    <g id="patch_18">
     <path d="M 367.715952 84.674375 
L 447.025327 84.674375 
Q 449.025327 84.674375 449.025327 82.674375 
L 449.025327 39.64 
Q 449.025327 37.64 447.025327 37.64 
L 367.715952 37.64 
Q 365.715952 37.64 365.715952 39.64 
L 365.715952 82.674375 
Q 365.715952 84.674375 367.715952 84.674375 
z
" style="fill: #ffffff; opacity: 0.8; stroke: #cccccc; stroke-linejoin: miter"/>
    </g>
    <g id="text_20">
     <!-- GDM Incidence -->
     <g transform="translate(369.715952 49.238437) scale(0.1 -0.1)">
      <defs>
       <path id="DejaVuSans-47" d="M 3809 666 
L 3809 1919 
L 2778 1919 
L 2778 2438 
L 4434 2438 
L 4434 434 
Q 4069 175 3628 42 
Q 3188 -91 2688 -91 
Q 1594 -91 976 548 
Q 359 1188 359 2328 
Q 359 3472 976 4111 
Q 1594 4750 2688 4750 
Q 3144 4750 3555 4637 
Q 3966 4525 4313 4306 
L 4313 3634 
Q 3963 3931 3569 4081 
Q 3175 4231 2741 4231 
Q 1884 4231 1454 3753 
Q 1025 3275 1025 2328 
Q 1025 1384 1454 906 
Q 1884 428 2741 428 
Q 3075 428 3337 486 
Q 3600 544 3809 666 
z
" transform="scale(0.015625)"/>
       <path id="DejaVuSans-4d" d="M 628 4666 
L 1569 4666 
L 2759 1491 
L 3956 4666 
L 4897 4666 
L 4897 0 
L 4281 0 
L 4281 4097 
L 3078 897 
L 2444 897 
L 1241 4097 
L 1241 0 
L 628 0 
L 628 4666 
z
" transform="scale(0.015625)"/>
       <path id="DejaVuSans-63" d="M 3122 3366 
L 3122 2828 
Q 2878 2963 2633 3030 
Q 2388 3097 2138 3097 
Q 1578 3097 1268 2742 
Q 959 2388 959 1747 
Q 959 1106 1268 751 
Q 1578 397 2138 397 
Q 2388 397 2633 464 
Q 2878 531 3122 666 
L 3122 134 
Q 2881 22 2623 -34 
Q 2366 -91 2075 -91 
Q 1284 -91 818 406 
Q 353 903 353 1747 
Q 353 2603 823 3093 
Q 1294 3584 2113 3584 
Q 2378 3584 2631 3529 
Q 2884 3475 3122 3366 
z
" transform="scale(0.015625)"/>
       <path id="DejaVuSans-69" d="M 603 3500 
L 1178 3500 
L 1178 0 
L 603 0 
L 603 3500 
z
M 603 4863 
L 1178 4863 
L 1178 4134 
L 603 4134 
L 603 4863 
z
" transform="scale(0.015625)"/>
       <path id="DejaVuSans-64" d="M 2906 2969 
L 2906 4863 
L 3481 4863 
L 3481 0 
L 2906 0 
L 2906 525 
Q 2725 213 2448 61 
Q 2172 -91 1784 -91 
Q 1150 -91 751 415 
Q 353 922 353 1747 
Q 353 2572 751 3078 
Q 1150 3584 1784 3584 
Q 2172 3584 2448 3432 
Q 2725 3281 2906 2969 
z
M 947 1747 
Q 947 1113 1208 752 
Q 1469 391 1925 391 
Q 2381 391 2643 752 
Q 2906 1113 2906 1747 
Q 2906 2381 2643 2742 
Q 2381 3103 1925 3103 
Q 1469 3103 1208 2742 
Q 947 2381 947 1747 
z
" transform="scale(0.015625)"/>
      </defs>
      <use xlink:href="#DejaVuSans-47"/>
      <use xlink:href="#DejaVuSans-44" x="77.490234"/>
      <use xlink:href="#DejaVuSans-4d" x="154.492188"/>
      <use xlink:href="#DejaVuSans-20" x="240.771484"/>
      <use xlink:href="#DejaVuSans-49" x="272.558594"/>
      <use xlink:href="#DejaVuSans-6e" x="302.050781"/>
      <use xlink:href="#DejaVuSans-63" x="365.429688"/>
      <use xlink:href="#DejaVuSans-69" x="420.410156"/>
      <use xlink:href="#DejaVuSans-64" x="448.193359"/>
      <use xlink:href="#DejaVuSans-65" x="511.669922"/>
      <use xlink:href="#DejaVuSans-6e" x="573.193359"/>
      <use xlink:href="#DejaVuSans-63" x="636.572266"/>
      <use xlink:href="#DejaVuSans-65" x="691.552734"/>
     </g>
    </g>
    <g id="patch_19">
     <path d="M 373.877671 63.916562 
L 393.877671 63.916562 
L 393.877671 56.916562 
L 373.877671 56.916562 
z
" style="fill: #4caf50; stroke: #4caf50; stroke-linejoin: miter"/>
    </g>
    <g id="text_21">
     <!-- &lt;=25% -->
     <g transform="translate(401.877671 63.916562) scale(0.1 -0.1)">
      <defs>
       <path id="DejaVuSans-3c" d="M 4684 3150 
L 1459 2003 
L 4684 863 
L 4684 294 
L 678 1747 
L 678 2266 
L 4684 3719 
L 4684 3150 
z
" transform="scale(0.015625)"/>
       <path id="DejaVuSans-3d" d="M 678 2906 
L 4684 2906 
L 4684 2381 
L 678 2381 
L 678 2906 
z
M 678 1631 
L 4684 1631 
L 4684 1100 
L 678 1100 
L 678 1631 
z
" transform="scale(0.015625)"/>
       <path id="DejaVuSans-25" d="M 4653 2053 
Q 4381 2053 4226 1822 
Q 4072 1591 4072 1178 
Q 4072 772 4226 539 
Q 4381 306 4653 306 
Q 4919 306 5073 539 
Q 5228 772 5228 1178 
Q 5228 1588 5073 1820 
Q 4919 2053 4653 2053 
z
M 4653 2450 
Q 5147 2450 5437 2106 
Q 5728 1763 5728 1178 
Q 5728 594 5436 251 
Q 5144 -91 4653 -91 
Q 4153 -91 3862 251 
Q 3572 594 3572 1178 
Q 3572 1766 3864 2108 
Q 4156 2450 4653 2450 
z
M 1428 4353 
Q 1159 4353 1004 4120 
Q 850 3888 850 3481 
Q 850 3069 1003 2837 
Q 1156 2606 1428 2606 
Q 1700 2606 1854 2837 
Q 2009 3069 2009 3481 
Q 2009 3884 1853 4118 
Q 1697 4353 1428 4353 
z
M 4250 4750 
L 4750 4750 
L 1831 -91 
L 1331 -91 
L 4250 4750 
z
M 1428 4750 
Q 1922 4750 2215 4408 
Q 2509 4066 2509 3481 
Q 2509 2891 2217 2550 
Q 1925 2209 1428 2209 
Q 931 2209 642 2551 
Q 353 2894 353 3481 
Q 353 4063 643 4406 
Q 934 4750 1428 4750 
z
" transform="scale(0.015625)"/>
      </defs>
      <use xlink:href="#DejaVuSans-3c"/>
      <use xlink:href="#DejaVuSans-3d" x="83.789062"/>
      <use xlink:href="#DejaVuSans-32" x="167.578125"/>
      <use xlink:href="#DejaVuSans-35" x="231.201172"/>
      <use xlink:href="#DejaVuSans-25" x="294.824219"/>
     </g>
    </g>
    <g id="patch_20">
     <path d="M 373.877671 78.594687 
L 393.877671 78.594687 
L 393.877671 71.594687 
L 373.877671 71.594687 
z
" style="fill: #ffdd33; stroke: #ffdd33; stroke-linejoin: miter"/>
    </g>
    <g id="text_22">
     <!-- &gt;25% -->
     <g transform="translate(401.877671 78.594687) scale(0.1 -0.1)">
      <defs>
       <path id="DejaVuSans-3e" d="M 678 3150 
L 678 3719 
L 4684 2266 
L 4684 1747 
L 678 294 
L 678 863 
L 3897 2003 
L 678 3150 
z
" transform="scale(0.015625)"/>
      </defs>
      <use xlink:href="#DejaVuSans-3e"/>
      <use xlink:href="#DejaVuSans-32" x="83.789062"/>
      <use xlink:href="#DejaVuSans-35" x="147.412109"/>
      <use xlink:href="#DejaVuSans-25" x="211.035156"/>
     </g>
    </g>
   </g>
  </g>
  <g id="text_23">
   <!-- ns : not significant -->
   <g transform="translate(423.936 119.0505) scale(0.12 -0.12)">
    <defs>
     <path id="DejaVuSans-3a" d="M 750 794 
L 1409 794 
L 1409 0 
L 750 0 
L 750 794 
z
M 750 3309 
L 1409 3309 
L 1409 2516 
L 750 2516 
L 750 3309 
z
" transform="scale(0.015625)"/>
     <path id="DejaVuSans-6f" d="M 1959 3097 
Q 1497 3097 1228 2736 
Q 959 2375 959 1747 
Q 959 1119 1226 758 
Q 1494 397 1959 397 
Q 2419 397 2687 759 
Q 2956 1122 2956 1747 
Q 2956 2369 2687 2733 
Q 2419 3097 1959 3097 
z
M 1959 3584 
Q 2709 3584 3137 3096 
Q 3566 2609 3566 1747 
Q 3566 888 3137 398 
Q 2709 -91 1959 -91 
Q 1206 -91 779 398 
Q 353 888 353 1747 
Q 353 2609 779 3096 
Q 1206 3584 1959 3584 
z
" transform="scale(0.015625)"/>
     <path id="DejaVuSans-67" d="M 2906 1791 
Q 2906 2416 2648 2759 
Q 2391 3103 1925 3103 
Q 1463 3103 1205 2759 
Q 947 2416 947 1791 
Q 947 1169 1205 825 
Q 1463 481 1925 481 
Q 2391 481 2648 825 
Q 2906 1169 2906 1791 
z
M 3481 434 
Q 3481 -459 3084 -895 
Q 2688 -1331 1869 -1331 
Q 1566 -1331 1297 -1286 
Q 1028 -1241 775 -1147 
L 775 -588 
Q 1028 -725 1275 -790 
Q 1522 -856 1778 -856 
Q 2344 -856 2625 -561 
Q 2906 -266 2906 331 
L 2906 616 
Q 2728 306 2450 153 
Q 2172 0 1784 0 
Q 1141 0 747 490 
Q 353 981 353 1791 
Q 353 2603 747 3093 
Q 1141 3584 1784 3584 
Q 2172 3584 2450 3431 
Q 2728 3278 2906 2969 
L 2906 3500 
L 3481 3500 
L 3481 434 
z
" transform="scale(0.015625)"/>
     <path id="DejaVuSans-66" d="M 2375 4863 
L 2375 4384 
L 1825 4384 
Q 1516 4384 1395 4259 
Q 1275 4134 1275 3809 
L 1275 3500 
L 2222 3500 
L 2222 3053 
L 1275 3053 
L 1275 0 
L 697 0 
L 697 3053 
L 147 3053 
L 147 3500 
L 697 3500 
L 697 3744 
Q 697 4328 969 4595 
Q 1241 4863 1831 4863 
L 2375 4863 
z
" transform="scale(0.015625)"/>
    </defs>
    <use xlink:href="#DejaVuSans-6e"/>
    <use xlink:href="#DejaVuSans-73" x="63.378906"/>
    <use xlink:href="#DejaVuSans-20" x="115.478516"/>
    <use xlink:href="#DejaVuSans-3a" x="147.265625"/>
    <use xlink:href="#DejaVuSans-20" x="180.957031"/>
    <use xlink:href="#DejaVuSans-6e" x="212.744141"/>
    <use xlink:href="#DejaVuSans-6f" x="276.123047"/>
    <use xlink:href="#DejaVuSans-74" x="337.304688"/>
    <use xlink:href="#DejaVuSans-20" x="376.513672"/>
    <use xlink:href="#DejaVuSans-73" x="408.300781"/>
    <use xlink:href="#DejaVuSans-69" x="460.400391"/>
    <use xlink:href="#DejaVuSans-67" x="488.183594"/>
    <use xlink:href="#DejaVuSans-6e" x="551.660156"/>
    <use xlink:href="#DejaVuSans-69" x="615.039062"/>
    <use xlink:href="#DejaVuSans-66" x="642.822266"/>
    <use xlink:href="#DejaVuSans-69" x="678.027344"/>
    <use xlink:href="#DejaVuSans-63" x="705.810547"/>
    <use xlink:href="#DejaVuSans-61" x="760.791016"/>
    <use xlink:href="#DejaVuSans-6e" x="822.070312"/>
    <use xlink:href="#DejaVuSans-74" x="885.449219"/>
   </g>
   <!--  * : p &lt; 0.05 -->
   <g transform="translate(423.936 132.487875) scale(0.12 -0.12)">
    <defs>
     <path id="DejaVuSans-70" d="M 1159 525 
L 1159 -1331 
L 581 -1331 
L 581 3500 
L 1159 3500 
L 1159 2969 
Q 1341 3281 1617 3432 
Q 1894 3584 2278 3584 
Q 2916 3584 3314 3078 
Q 3713 2572 3713 1747 
Q 3713 922 3314 415 
Q 2916 -91 2278 -91 
Q 1894 -91 1617 61 
Q 1341 213 1159 525 
z
M 3116 1747 
Q 3116 2381 2855 2742 
Q 2594 3103 2138 3103 
Q 1681 3103 1420 2742 
Q 1159 2381 1159 1747 
Q 1159 1113 1420 752 
Q 1681 391 2138 391 
Q 2594 391 2855 752 
Q 3116 1113 3116 1747 
z
" transform="scale(0.015625)"/>
    </defs>
    <use xlink:href="#DejaVuSans-20"/>
    <use xlink:href="#DejaVuSans-2a" x="31.787109"/>
    <use xlink:href="#DejaVuSans-20" x="81.787109"/>
    <use xlink:href="#DejaVuSans-3a" x="113.574219"/>
    <use xlink:href="#DejaVuSans-20" x="147.265625"/>
    <use xlink:href="#DejaVuSans-70" x="179.052734"/>
    <use xlink:href="#DejaVuSans-20" x="242.529297"/>
    <use xlink:href="#DejaVuSans-3c" x="274.316406"/>
    <use xlink:href="#DejaVuSans-20" x="358.105469"/>
    <use xlink:href="#DejaVuSans-30" x="389.892578"/>
    <use xlink:href="#DejaVuSans-2e" x="453.515625"/>
    <use xlink:href="#DejaVuSans-30" x="485.302734"/>
    <use xlink:href="#DejaVuSans-35" x="548.925781"/>
   </g>
   <!--  ** : p &lt; 0.01 -->
   <g transform="translate(423.936 145.92525) scale(0.12 -0.12)">
    <use xlink:href="#DejaVuSans-20"/>
    <use xlink:href="#DejaVuSans-2a" x="31.787109"/>
    <use xlink:href="#DejaVuSans-2a" x="81.787109"/>
    <use xlink:href="#DejaVuSans-20" x="131.787109"/>
    <use xlink:href="#DejaVuSans-3a" x="163.574219"/>
    <use xlink:href="#DejaVuSans-20" x="197.265625"/>
    <use xlink:href="#DejaVuSans-70" x="229.052734"/>
    <use xlink:href="#DejaVuSans-20" x="292.529297"/>
    <use xlink:href="#DejaVuSans-3c" x="324.316406"/>
    <use xlink:href="#DejaVuSans-20" x="408.105469"/>
    <use xlink:href="#DejaVuSans-30" x="439.892578"/>
    <use xlink:href="#DejaVuSans-2e" x="503.515625"/>
    <use xlink:href="#DejaVuSans-30" x="535.302734"/>
    <use xlink:href="#DejaVuSans-31" x="598.925781"/>
   </g>
   <!--  *** : p &lt; 0.001 -->
   <g transform="translate(423.936 159.362625) scale(0.12 -0.12)">
    <use xlink:href="#DejaVuSans-20"/>
    <use xlink:href="#DejaVuSans-2a" x="31.787109"/>
    <use xlink:href="#DejaVuSans-2a" x="81.787109"/>
    <use xlink:href="#DejaVuSans-2a" x="131.787109"/>
    <use xlink:href="#DejaVuSans-20" x="181.787109"/>
    <use xlink:href="#DejaVuSans-3a" x="213.574219"/>
    <use xlink:href="#DejaVuSans-20" x="247.265625"/>
    <use xlink:href="#DejaVuSans-70" x="279.052734"/>
    <use xlink:href="#DejaVuSans-20" x="342.529297"/>
    <use xlink:href="#DejaVuSans-3c" x="374.316406"/>
    <use xlink:href="#DejaVuSans-20" x="458.105469"/>
    <use xlink:href="#DejaVuSans-30" x="489.892578"/>
    <use xlink:href="#DejaVuSans-2e" x="553.515625"/>
    <use xlink:href="#DejaVuSans-30" x="585.302734"/>
    <use xlink:href="#DejaVuSans-30" x="648.925781"/>
    <use xlink:href="#DejaVuSans-31" x="712.548828"/>
   </g>
   <!--  ****: p &lt;= 1.00e-04 -->
   <g transform="translate(423.936 172.8) scale(0.12 -0.12)">
    <use xlink:href="#DejaVuSans-20"/>
    <use xlink:href="#DejaVuSans-2a" x="31.787109"/>
    <use xlink:href="#DejaVuSans-2a" x="81.787109"/>
    <use xlink:href="#DejaVuSans-2a" x="131.787109"/>
    <use xlink:href="#DejaVuSans-2a" x="181.787109"/>
    <use xlink:href="#DejaVuSans-3a" x="231.787109"/>
    <use xlink:href="#DejaVuSans-20" x="265.478516"/>
    <use xlink:href="#DejaVuSans-70" x="297.265625"/>
    <use xlink:href="#DejaVuSans-20" x="360.742188"/>
    <use xlink:href="#DejaVuSans-3c" x="392.529297"/>
    <use xlink:href="#DejaVuSans-3d" x="476.318359"/>
    <use xlink:href="#DejaVuSans-20" x="560.107422"/>
    <use xlink:href="#DejaVuSans-31" x="591.894531"/>
    <use xlink:href="#DejaVuSans-2e" x="655.517578"/>
    <use xlink:href="#DejaVuSans-30" x="687.304688"/>
    <use xlink:href="#DejaVuSans-30" x="750.927734"/>
    <use xlink:href="#DejaVuSans-65" x="814.550781"/>
    <use xlink:href="#DejaVuSans-2d" x="876.074219"/>
    <use xlink:href="#DejaVuSans-30" x="912.158203"/>
    <use xlink:href="#DejaVuSans-34" x="975.78125"/>
   </g>
  </g>
 </g>
 <defs>
  <clipPath id="p127bf26b46">
   <rect x="54.29" y="32.64" width="300.4176" height="226.361175"/>
  </clipPath>
 </defs>
</svg>
