<?xml version="1.0" encoding="utf-8" standalone="no"?>
<!DOCTYPE svg PUBLIC "-//W3C//DTD SVG 1.1//EN"
  "http://www.w3.org/Graphics/SVG/1.1/DTD/svg11.dtd">
<svg xmlns:xlink="http://www.w3.org/1999/xlink" width="460.8pt" height="345.6pt" viewBox="0 0 460.8 345.6" xmlns="http://www.w3.org/2000/svg" version="1.1">
 <metadata>
  <rdf:RDF xmlns:dc="http://purl.org/dc/elements/1.1/" xmlns:cc="http://creativecommons.org/ns#" xmlns:rdf="http://www.w3.org/1999/02/22-rdf-syntax-ns#">
   <cc:Work>
    <dc:type rdf:resource="http://purl.org/dc/dcmitype/StillImage"/>
    <dc:date>2023-08-06T10:49:13.946428</dc:date>
    <dc:format>image/svg+xml</dc:format>
    <dc:creator>
     <cc:Agent>
      <dc:title>Matplotlib v3.6.2, https://matplotlib.org/</dc:title>
     </cc:Agent>
    </dc:creator>
   </cc:Work>
  </rdf:RDF>
 </metadata>
 <defs>
  <style type="text/css">*{stroke-linejoin: round; stroke-linecap: butt}</style>
 </defs>
 <g id="figure_1">
  <g id="patch_1">
   <path d="M 0 345.6 
L 460.8 345.6 
L 460.8 0 
L 0 0 
z
" style="fill: #ffffff"/>
  </g>
  <g id="axes_1">
   <g id="patch_2">
    <path d="M 54.29 266.065172 
L 361.2776 266.065172 
L 361.2776 32.64 
L 54.29 32.64 
z
" style="fill: #ffffff"/>
   </g>
   <g id="patch_3">
    <path d="M 75.500052 194.982171 
L 102.849857 194.982171 
L 102.849857 183.379874 
L 75.500052 183.379874 
L 75.500052 194.982171 
z
" clip-path="url(#pa849e19920)" style="fill: #58a35b; stroke: #4b4b4b; stroke-width: 1.5; stroke-linejoin: miter"/>
   </g>
   <g id="patch_4">
    <path d="M 103.408016 204.182663 
L 130.75782 204.182663 
L 130.75782 185.767614 
L 103.408016 185.767614 
L 103.408016 204.182663 
z
" clip-path="url(#pa849e19920)" style="fill: #e6cc4c; stroke: #4b4b4b; stroke-width: 1.5; stroke-linejoin: miter"/>
   </g>
   <g id="patch_5">
    <path d="M 145.269961 171.621177 
L 172.619766 171.621177 
L 172.619766 159.601307 
L 145.269961 159.601307 
L 145.269961 171.621177 
z
" clip-path="url(#pa849e19920)" style="fill: #58a35b; stroke: #4b4b4b; stroke-width: 1.5; stroke-linejoin: miter"/>
   </g>
   <g id="patch_6">
    <path d="M 173.177925 161.167947 
L 200.527729 161.167947 
L 200.527729 144.059138 
L 173.177925 144.059138 
L 173.177925 161.167947 
z
" clip-path="url(#pa849e19920)" style="fill: #e6cc4c; stroke: #4b4b4b; stroke-width: 1.5; stroke-linejoin: miter"/>
   </g>
   <g id="patch_7">
    <path d="M 215.039871 151.071687 
L 242.389675 151.071687 
L 242.389675 129.299835 
L 215.039871 129.299835 
L 215.039871 151.071687 
z
" clip-path="url(#pa849e19920)" style="fill: #58a35b; stroke: #4b4b4b; stroke-width: 1.5; stroke-linejoin: miter"/>
   </g>
   <g id="patch_8">
    <path d="M 242.947834 138.261246 
L 270.297639 138.261246 
L 270.297639 123.762553 
L 242.947834 123.762553 
L 242.947834 138.261246 
z
" clip-path="url(#pa849e19920)" style="fill: #e6cc4c; stroke: #4b4b4b; stroke-width: 1.5; stroke-linejoin: miter"/>
   </g>
   <g id="patch_9">
    <path d="M 284.80978 128.270727 
L 312.159584 128.270727 
L 312.159584 104.402408 
L 284.80978 104.402408 
L 284.80978 128.270727 
z
" clip-path="url(#pa849e19920)" style="fill: #58a35b; stroke: #4b4b4b; stroke-width: 1.5; stroke-linejoin: miter"/>
   </g>
   <g id="patch_10">
    <path d="M 312.717743 115.168761 
L 340.067548 115.168761 
L 340.067548 104.936195 
L 312.717743 104.936195 
L 312.717743 115.168761 
z
" clip-path="url(#pa849e19920)" style="fill: #e6cc4c; stroke: #4b4b4b; stroke-width: 1.5; stroke-linejoin: miter"/>
   </g>
   <g id="patch_11">
    <path d="M 103.128936 355.844084 
L 103.128936 355.844084 
L 103.128936 355.844084 
L 103.128936 355.844084 
z
" clip-path="url(#pa849e19920)" style="fill: #58a35b; stroke: #4b4b4b; stroke-width: 0.75; stroke-linejoin: miter"/>
   </g>
   <g id="patch_12">
    <path d="M 103.128936 355.844084 
L 103.128936 355.844084 
L 103.128936 355.844084 
L 103.128936 355.844084 
z
" clip-path="url(#pa849e19920)" style="fill: #e6cc4c; stroke: #4b4b4b; stroke-width: 0.75; stroke-linejoin: miter"/>
   </g>
   <g id="matplotlib.axis_1">
    <g id="xtick_1">
     <g id="line2d_1">
      <defs>
       <path id="m6cd3219664" d="M 0 0 
L 0 3.5 
" style="stroke: #000000; stroke-width: 0.8"/>
      </defs>
      <g>
       <use xlink:href="#m6cd3219664" x="103.128936" y="266.065172" style="stroke: #000000; stroke-width: 0.8"/>
      </g>
     </g>
     <g id="text_1">
      <!-- &lt;0.65 -->
      <g transform="translate(94.245355 300.107587) rotate(-45) scale(0.1 -0.1)">
       <defs>
        <path id="DejaVuSans-3c" d="M 4684 3150 
L 1459 2003 
L 4684 863 
L 4684 294 
L 678 1747 
L 678 2266 
L 4684 3719 
L 4684 3150 
z
" transform="scale(0.015625)"/>
        <path id="DejaVuSans-30" d="M 2034 4250 
Q 1547 4250 1301 3770 
Q 1056 3291 1056 2328 
Q 1056 1369 1301 889 
Q 1547 409 2034 409 
Q 2525 409 2770 889 
Q 3016 1369 3016 2328 
Q 3016 3291 2770 3770 
Q 2525 4250 2034 4250 
z
M 2034 4750 
Q 2819 4750 3233 4129 
Q 3647 3509 3647 2328 
Q 3647 1150 3233 529 
Q 2819 -91 2034 -91 
Q 1250 -91 836 529 
Q 422 1150 422 2328 
Q 422 3509 836 4129 
Q 1250 4750 2034 4750 
z
" transform="scale(0.015625)"/>
        <path id="DejaVuSans-2e" d="M 684 794 
L 1344 794 
L 1344 0 
L 684 0 
L 684 794 
z
" transform="scale(0.015625)"/>
        <path id="DejaVuSans-36" d="M 2113 2584 
Q 1688 2584 1439 2293 
Q 1191 2003 1191 1497 
Q 1191 994 1439 701 
Q 1688 409 2113 409 
Q 2538 409 2786 701 
Q 3034 994 3034 1497 
Q 3034 2003 2786 2293 
Q 2538 2584 2113 2584 
z
M 3366 4563 
L 3366 3988 
Q 3128 4100 2886 4159 
Q 2644 4219 2406 4219 
Q 1781 4219 1451 3797 
Q 1122 3375 1075 2522 
Q 1259 2794 1537 2939 
Q 1816 3084 2150 3084 
Q 2853 3084 3261 2657 
Q 3669 2231 3669 1497 
Q 3669 778 3244 343 
Q 2819 -91 2113 -91 
Q 1303 -91 875 529 
Q 447 1150 447 2328 
Q 447 3434 972 4092 
Q 1497 4750 2381 4750 
Q 2619 4750 2861 4703 
Q 3103 4656 3366 4563 
z
" transform="scale(0.015625)"/>
        <path id="DejaVuSans-35" d="M 691 4666 
L 3169 4666 
L 3169 4134 
L 1269 4134 
L 1269 2991 
Q 1406 3038 1543 3061 
Q 1681 3084 1819 3084 
Q 2600 3084 3056 2656 
Q 3513 2228 3513 1497 
Q 3513 744 3044 326 
Q 2575 -91 1722 -91 
Q 1428 -91 1123 -41 
Q 819 9 494 109 
L 494 744 
Q 775 591 1075 516 
Q 1375 441 1709 441 
Q 2250 441 2565 725 
Q 2881 1009 2881 1497 
Q 2881 1984 2565 2268 
Q 2250 2553 1709 2553 
Q 1456 2553 1204 2497 
Q 953 2441 691 2322 
L 691 4666 
z
" transform="scale(0.015625)"/>
       </defs>
       <use xlink:href="#DejaVuSans-3c"/>
       <use xlink:href="#DejaVuSans-30" x="83.789062"/>
       <use xlink:href="#DejaVuSans-2e" x="147.412109"/>
       <use xlink:href="#DejaVuSans-36" x="179.199219"/>
       <use xlink:href="#DejaVuSans-35" x="242.822266"/>
      </g>
     </g>
    </g>
    <g id="xtick_2">
     <g id="line2d_2">
      <g>
       <use xlink:href="#m6cd3219664" x="172.898845" y="266.065172" style="stroke: #000000; stroke-width: 0.8"/>
      </g>
     </g>
     <g id="text_2">
      <!-- 0.66-0.70 -->
      <g transform="translate(157.830289 312.477536) rotate(-45) scale(0.1 -0.1)">
       <defs>
        <path id="DejaVuSans-2d" d="M 313 2009 
L 1997 2009 
L 1997 1497 
L 313 1497 
L 313 2009 
z
" transform="scale(0.015625)"/>
        <path id="DejaVuSans-37" d="M 525 4666 
L 3525 4666 
L 3525 4397 
L 1831 0 
L 1172 0 
L 2766 4134 
L 525 4134 
L 525 4666 
z
" transform="scale(0.015625)"/>
       </defs>
       <use xlink:href="#DejaVuSans-30"/>
       <use xlink:href="#DejaVuSans-2e" x="63.623047"/>
       <use xlink:href="#DejaVuSans-36" x="95.410156"/>
       <use xlink:href="#DejaVuSans-36" x="159.033203"/>
       <use xlink:href="#DejaVuSans-2d" x="222.65625"/>
       <use xlink:href="#DejaVuSans-30" x="258.740234"/>
       <use xlink:href="#DejaVuSans-2e" x="322.363281"/>
       <use xlink:href="#DejaVuSans-37" x="354.150391"/>
       <use xlink:href="#DejaVuSans-30" x="417.773438"/>
      </g>
     </g>
    </g>
    <g id="xtick_3">
     <g id="line2d_3">
      <g>
       <use xlink:href="#m6cd3219664" x="242.668755" y="266.065172" style="stroke: #000000; stroke-width: 0.8"/>
      </g>
     </g>
     <g id="text_3">
      <!-- 0.71-0.75 -->
      <g transform="translate(227.600199 312.477536) rotate(-45) scale(0.1 -0.1)">
       <defs>
        <path id="DejaVuSans-31" d="M 794 531 
L 1825 531 
L 1825 4091 
L 703 3866 
L 703 4441 
L 1819 4666 
L 2450 4666 
L 2450 531 
L 3481 531 
L 3481 0 
L 794 0 
L 794 531 
z
" transform="scale(0.015625)"/>
       </defs>
       <use xlink:href="#DejaVuSans-30"/>
       <use xlink:href="#DejaVuSans-2e" x="63.623047"/>
       <use xlink:href="#DejaVuSans-37" x="95.410156"/>
       <use xlink:href="#DejaVuSans-31" x="159.033203"/>
       <use xlink:href="#DejaVuSans-2d" x="222.65625"/>
       <use xlink:href="#DejaVuSans-30" x="258.740234"/>
       <use xlink:href="#DejaVuSans-2e" x="322.363281"/>
       <use xlink:href="#DejaVuSans-37" x="354.150391"/>
       <use xlink:href="#DejaVuSans-35" x="417.773438"/>
      </g>
     </g>
    </g>
    <g id="xtick_4">
     <g id="line2d_4">
      <g>
       <use xlink:href="#m6cd3219664" x="312.438664" y="266.065172" style="stroke: #000000; stroke-width: 0.8"/>
      </g>
     </g>
     <g id="text_4">
      <!-- 0.76-0.80 -->
      <g transform="translate(297.370108 312.477536) rotate(-45) scale(0.1 -0.1)">
       <defs>
        <path id="DejaVuSans-38" d="M 2034 2216 
Q 1584 2216 1326 1975 
Q 1069 1734 1069 1313 
Q 1069 891 1326 650 
Q 1584 409 2034 409 
Q 2484 409 2743 651 
Q 3003 894 3003 1313 
Q 3003 1734 2745 1975 
Q 2488 2216 2034 2216 
z
M 1403 2484 
Q 997 2584 770 2862 
Q 544 3141 544 3541 
Q 544 4100 942 4425 
Q 1341 4750 2034 4750 
Q 2731 4750 3128 4425 
Q 3525 4100 3525 3541 
Q 3525 3141 3298 2862 
Q 3072 2584 2669 2484 
Q 3125 2378 3379 2068 
Q 3634 1759 3634 1313 
Q 3634 634 3220 271 
Q 2806 -91 2034 -91 
Q 1263 -91 848 271 
Q 434 634 434 1313 
Q 434 1759 690 2068 
Q 947 2378 1403 2484 
z
M 1172 3481 
Q 1172 3119 1398 2916 
Q 1625 2713 2034 2713 
Q 2441 2713 2670 2916 
Q 2900 3119 2900 3481 
Q 2900 3844 2670 4047 
Q 2441 4250 2034 4250 
Q 1625 4250 1398 4047 
Q 1172 3844 1172 3481 
z
" transform="scale(0.015625)"/>
       </defs>
       <use xlink:href="#DejaVuSans-30"/>
       <use xlink:href="#DejaVuSans-2e" x="63.623047"/>
       <use xlink:href="#DejaVuSans-37" x="95.410156"/>
       <use xlink:href="#DejaVuSans-36" x="159.033203"/>
       <use xlink:href="#DejaVuSans-2d" x="222.65625"/>
       <use xlink:href="#DejaVuSans-30" x="258.740234"/>
       <use xlink:href="#DejaVuSans-2e" x="322.363281"/>
       <use xlink:href="#DejaVuSans-38" x="354.150391"/>
       <use xlink:href="#DejaVuSans-30" x="417.773438"/>
      </g>
     </g>
    </g>
    <g id="text_5">
     <!-- NDVI Range -->
     <g transform="translate(160.0513 330.105597) scale(0.16 -0.16)">
      <defs>
       <path id="DejaVuSans-4e" d="M 628 4666 
L 1478 4666 
L 3547 763 
L 3547 4666 
L 4159 4666 
L 4159 0 
L 3309 0 
L 1241 3903 
L 1241 0 
L 628 0 
L 628 4666 
z
" transform="scale(0.015625)"/>
       <path id="DejaVuSans-44" d="M 1259 4147 
L 1259 519 
L 2022 519 
Q 2988 519 3436 956 
Q 3884 1394 3884 2338 
Q 3884 3275 3436 3711 
Q 2988 4147 2022 4147 
L 1259 4147 
z
M 628 4666 
L 1925 4666 
Q 3281 4666 3915 4102 
Q 4550 3538 4550 2338 
Q 4550 1131 3912 565 
Q 3275 0 1925 0 
L 628 0 
L 628 4666 
z
" transform="scale(0.015625)"/>
       <path id="DejaVuSans-56" d="M 1831 0 
L 50 4666 
L 709 4666 
L 2188 738 
L 3669 4666 
L 4325 4666 
L 2547 0 
L 1831 0 
z
" transform="scale(0.015625)"/>
       <path id="DejaVuSans-49" d="M 628 4666 
L 1259 4666 
L 1259 0 
L 628 0 
L 628 4666 
z
" transform="scale(0.015625)"/>
       <path id="DejaVuSans-20" transform="scale(0.015625)"/>
       <path id="DejaVuSans-52" d="M 2841 2188 
Q 3044 2119 3236 1894 
Q 3428 1669 3622 1275 
L 4263 0 
L 3584 0 
L 2988 1197 
Q 2756 1666 2539 1819 
Q 2322 1972 1947 1972 
L 1259 1972 
L 1259 0 
L 628 0 
L 628 4666 
L 2053 4666 
Q 2853 4666 3247 4331 
Q 3641 3997 3641 3322 
Q 3641 2881 3436 2590 
Q 3231 2300 2841 2188 
z
M 1259 4147 
L 1259 2491 
L 2053 2491 
Q 2509 2491 2742 2702 
Q 2975 2913 2975 3322 
Q 2975 3731 2742 3939 
Q 2509 4147 2053 4147 
L 1259 4147 
z
" transform="scale(0.015625)"/>
       <path id="DejaVuSans-61" d="M 2194 1759 
Q 1497 1759 1228 1600 
Q 959 1441 959 1056 
Q 959 750 1161 570 
Q 1363 391 1709 391 
Q 2188 391 2477 730 
Q 2766 1069 2766 1631 
L 2766 1759 
L 2194 1759 
z
M 3341 1997 
L 3341 0 
L 2766 0 
L 2766 531 
Q 2569 213 2275 61 
Q 1981 -91 1556 -91 
Q 1019 -91 701 211 
Q 384 513 384 1019 
Q 384 1609 779 1909 
Q 1175 2209 1959 2209 
L 2766 2209 
L 2766 2266 
Q 2766 2663 2505 2880 
Q 2244 3097 1772 3097 
Q 1472 3097 1187 3025 
Q 903 2953 641 2809 
L 641 3341 
Q 956 3463 1253 3523 
Q 1550 3584 1831 3584 
Q 2591 3584 2966 3190 
Q 3341 2797 3341 1997 
z
" transform="scale(0.015625)"/>
       <path id="DejaVuSans-6e" d="M 3513 2113 
L 3513 0 
L 2938 0 
L 2938 2094 
Q 2938 2591 2744 2837 
Q 2550 3084 2163 3084 
Q 1697 3084 1428 2787 
Q 1159 2491 1159 1978 
L 1159 0 
L 581 0 
L 581 3500 
L 1159 3500 
L 1159 2956 
Q 1366 3272 1645 3428 
Q 1925 3584 2291 3584 
Q 2894 3584 3203 3211 
Q 3513 2838 3513 2113 
z
" transform="scale(0.015625)"/>
       <path id="DejaVuSans-67" d="M 2906 1791 
Q 2906 2416 2648 2759 
Q 2391 3103 1925 3103 
Q 1463 3103 1205 2759 
Q 947 2416 947 1791 
Q 947 1169 1205 825 
Q 1463 481 1925 481 
Q 2391 481 2648 825 
Q 2906 1169 2906 1791 
z
M 3481 434 
Q 3481 -459 3084 -895 
Q 2688 -1331 1869 -1331 
Q 1566 -1331 1297 -1286 
Q 1028 -1241 775 -1147 
L 775 -588 
Q 1028 -725 1275 -790 
Q 1522 -856 1778 -856 
Q 2344 -856 2625 -561 
Q 2906 -266 2906 331 
L 2906 616 
Q 2728 306 2450 153 
Q 2172 0 1784 0 
Q 1141 0 747 490 
Q 353 981 353 1791 
Q 353 2603 747 3093 
Q 1141 3584 1784 3584 
Q 2172 3584 2450 3431 
Q 2728 3278 2906 2969 
L 2906 3500 
L 3481 3500 
L 3481 434 
z
" transform="scale(0.015625)"/>
       <path id="DejaVuSans-65" d="M 3597 1894 
L 3597 1613 
L 953 1613 
Q 991 1019 1311 708 
Q 1631 397 2203 397 
Q 2534 397 2845 478 
Q 3156 559 3463 722 
L 3463 178 
Q 3153 47 2828 -22 
Q 2503 -91 2169 -91 
Q 1331 -91 842 396 
Q 353 884 353 1716 
Q 353 2575 817 3079 
Q 1281 3584 2069 3584 
Q 2775 3584 3186 3129 
Q 3597 2675 3597 1894 
z
M 3022 2063 
Q 3016 2534 2758 2815 
Q 2500 3097 2075 3097 
Q 1594 3097 1305 2825 
Q 1016 2553 972 2059 
L 3022 2063 
z
" transform="scale(0.015625)"/>
      </defs>
      <use xlink:href="#DejaVuSans-4e"/>
      <use xlink:href="#DejaVuSans-44" x="74.804688"/>
      <use xlink:href="#DejaVuSans-56" x="150.056641"/>
      <use xlink:href="#DejaVuSans-49" x="218.464844"/>
      <use xlink:href="#DejaVuSans-20" x="247.957031"/>
      <use xlink:href="#DejaVuSans-52" x="279.744141"/>
      <use xlink:href="#DejaVuSans-61" x="346.976562"/>
      <use xlink:href="#DejaVuSans-6e" x="408.255859"/>
      <use xlink:href="#DejaVuSans-67" x="471.634766"/>
      <use xlink:href="#DejaVuSans-65" x="535.111328"/>
     </g>
    </g>
   </g>
   <g id="matplotlib.axis_2">
    <g id="ytick_1">
     <g id="line2d_5">
      <defs>
       <path id="m7b5b8707f7" d="M 0 0 
L -3.5 0 
" style="stroke: #000000; stroke-width: 0.8"/>
      </defs>
      <g>
       <use xlink:href="#m7b5b8707f7" x="54.29" y="248.10939" style="stroke: #000000; stroke-width: 0.8"/>
      </g>
     </g>
     <g id="text_6">
      <!-- 0.3 -->
      <g transform="translate(31.386875 251.908608) scale(0.1 -0.1)">
       <defs>
        <path id="DejaVuSans-33" d="M 2597 2516 
Q 3050 2419 3304 2112 
Q 3559 1806 3559 1356 
Q 3559 666 3084 287 
Q 2609 -91 1734 -91 
Q 1441 -91 1130 -33 
Q 819 25 488 141 
L 488 750 
Q 750 597 1062 519 
Q 1375 441 1716 441 
Q 2309 441 2620 675 
Q 2931 909 2931 1356 
Q 2931 1769 2642 2001 
Q 2353 2234 1838 2234 
L 1294 2234 
L 1294 2753 
L 1863 2753 
Q 2328 2753 2575 2939 
Q 2822 3125 2822 3475 
Q 2822 3834 2567 4026 
Q 2313 4219 1838 4219 
Q 1578 4219 1281 4162 
Q 984 4106 628 3988 
L 628 4550 
Q 988 4650 1302 4700 
Q 1616 4750 1894 4750 
Q 2613 4750 3031 4423 
Q 3450 4097 3450 3541 
Q 3450 3153 3228 2886 
Q 3006 2619 2597 2516 
z
" transform="scale(0.015625)"/>
       </defs>
       <use xlink:href="#DejaVuSans-30"/>
       <use xlink:href="#DejaVuSans-2e" x="63.623047"/>
       <use xlink:href="#DejaVuSans-33" x="95.410156"/>
      </g>
     </g>
    </g>
    <g id="ytick_2">
     <g id="line2d_6">
      <g>
       <use xlink:href="#m7b5b8707f7" x="54.29" y="212.197825" style="stroke: #000000; stroke-width: 0.8"/>
      </g>
     </g>
     <g id="text_7">
      <!-- 0.4 -->
      <g transform="translate(31.386875 215.997043) scale(0.1 -0.1)">
       <defs>
        <path id="DejaVuSans-34" d="M 2419 4116 
L 825 1625 
L 2419 1625 
L 2419 4116 
z
M 2253 4666 
L 3047 4666 
L 3047 1625 
L 3713 1625 
L 3713 1100 
L 3047 1100 
L 3047 0 
L 2419 0 
L 2419 1100 
L 313 1100 
L 313 1709 
L 2253 4666 
z
" transform="scale(0.015625)"/>
       </defs>
       <use xlink:href="#DejaVuSans-30"/>
       <use xlink:href="#DejaVuSans-2e" x="63.623047"/>
       <use xlink:href="#DejaVuSans-34" x="95.410156"/>
      </g>
     </g>
    </g>
    <g id="ytick_3">
     <g id="line2d_7">
      <g>
       <use xlink:href="#m7b5b8707f7" x="54.29" y="176.28626" style="stroke: #000000; stroke-width: 0.8"/>
      </g>
     </g>
     <g id="text_8">
      <!-- 0.5 -->
      <g transform="translate(31.386875 180.085479) scale(0.1 -0.1)">
       <use xlink:href="#DejaVuSans-30"/>
       <use xlink:href="#DejaVuSans-2e" x="63.623047"/>
       <use xlink:href="#DejaVuSans-35" x="95.410156"/>
      </g>
     </g>
    </g>
    <g id="ytick_4">
     <g id="line2d_8">
      <g>
       <use xlink:href="#m7b5b8707f7" x="54.29" y="140.374695" style="stroke: #000000; stroke-width: 0.8"/>
      </g>
     </g>
     <g id="text_9">
      <!-- 0.6 -->
      <g transform="translate(31.386875 144.173914) scale(0.1 -0.1)">
       <use xlink:href="#DejaVuSans-30"/>
       <use xlink:href="#DejaVuSans-2e" x="63.623047"/>
       <use xlink:href="#DejaVuSans-36" x="95.410156"/>
      </g>
     </g>
    </g>
    <g id="ytick_5">
     <g id="line2d_9">
      <g>
       <use xlink:href="#m7b5b8707f7" x="54.29" y="104.46313" style="stroke: #000000; stroke-width: 0.8"/>
      </g>
     </g>
     <g id="text_10">
      <!-- 0.7 -->
      <g transform="translate(31.386875 108.262349) scale(0.1 -0.1)">
       <use xlink:href="#DejaVuSans-30"/>
       <use xlink:href="#DejaVuSans-2e" x="63.623047"/>
       <use xlink:href="#DejaVuSans-37" x="95.410156"/>
      </g>
     </g>
    </g>
    <g id="ytick_6">
     <g id="line2d_10">
      <g>
       <use xlink:href="#m7b5b8707f7" x="54.29" y="68.551565" style="stroke: #000000; stroke-width: 0.8"/>
      </g>
     </g>
     <g id="text_11">
      <!-- 0.8 -->
      <g transform="translate(31.386875 72.350784) scale(0.1 -0.1)">
       <use xlink:href="#DejaVuSans-30"/>
       <use xlink:href="#DejaVuSans-2e" x="63.623047"/>
       <use xlink:href="#DejaVuSans-38" x="95.410156"/>
      </g>
     </g>
    </g>
    <g id="ytick_7">
     <g id="line2d_11">
      <g>
       <use xlink:href="#m7b5b8707f7" x="54.29" y="32.64" style="stroke: #000000; stroke-width: 0.8"/>
      </g>
     </g>
     <g id="text_12">
      <!-- 0.9 -->
      <g transform="translate(31.386875 36.439219) scale(0.1 -0.1)">
       <defs>
        <path id="DejaVuSans-39" d="M 703 97 
L 703 672 
Q 941 559 1184 500 
Q 1428 441 1663 441 
Q 2288 441 2617 861 
Q 2947 1281 2994 2138 
Q 2813 1869 2534 1725 
Q 2256 1581 1919 1581 
Q 1219 1581 811 2004 
Q 403 2428 403 3163 
Q 403 3881 828 4315 
Q 1253 4750 1959 4750 
Q 2769 4750 3195 4129 
Q 3622 3509 3622 2328 
Q 3622 1225 3098 567 
Q 2575 -91 1691 -91 
Q 1453 -91 1209 -44 
Q 966 3 703 97 
z
M 1959 2075 
Q 2384 2075 2632 2365 
Q 2881 2656 2881 3163 
Q 2881 3666 2632 3958 
Q 2384 4250 1959 4250 
Q 1534 4250 1286 3958 
Q 1038 3666 1038 3163 
Q 1038 2656 1286 2365 
Q 1534 2075 1959 2075 
z
" transform="scale(0.015625)"/>
       </defs>
       <use xlink:href="#DejaVuSans-30"/>
       <use xlink:href="#DejaVuSans-2e" x="63.623047"/>
       <use xlink:href="#DejaVuSans-39" x="95.410156"/>
      </g>
     </g>
    </g>
    <g id="text_13">
     <!-- EVI -->
     <g transform="translate(24.059375 162.240086) rotate(-90) scale(0.16 -0.16)">
      <defs>
       <path id="DejaVuSans-45" d="M 628 4666 
L 3578 4666 
L 3578 4134 
L 1259 4134 
L 1259 2753 
L 3481 2753 
L 3481 2222 
L 1259 2222 
L 1259 531 
L 3634 531 
L 3634 0 
L 628 0 
L 628 4666 
z
" transform="scale(0.015625)"/>
      </defs>
      <use xlink:href="#DejaVuSans-45"/>
      <use xlink:href="#DejaVuSans-56" x="63.183594"/>
      <use xlink:href="#DejaVuSans-49" x="131.591797"/>
     </g>
    </g>
   </g>
   <g id="line2d_12">
    <path d="M 89.174955 194.982171 
L 89.174955 212.090284 
" clip-path="url(#pa849e19920)" style="fill: none; stroke: #4b4b4b; stroke-width: 1.5; stroke-linecap: square"/>
   </g>
   <g id="line2d_13">
    <path d="M 89.174955 183.379874 
L 89.174955 166.811011 
" clip-path="url(#pa849e19920)" style="fill: none; stroke: #4b4b4b; stroke-width: 1.5; stroke-linecap: square"/>
   </g>
   <g id="line2d_14">
    <path d="M 82.337503 212.090284 
L 96.012406 212.090284 
" clip-path="url(#pa849e19920)" style="fill: none; stroke: #4b4b4b; stroke-width: 1.5; stroke-linecap: square"/>
   </g>
   <g id="line2d_15">
    <path d="M 82.337503 166.811011 
L 96.012406 166.811011 
" clip-path="url(#pa849e19920)" style="fill: none; stroke: #4b4b4b; stroke-width: 1.5; stroke-linecap: square"/>
   </g>
   <g id="line2d_16">
    <path d="M 117.082918 204.182663 
L 117.082918 218.739039 
" clip-path="url(#pa849e19920)" style="fill: none; stroke: #4b4b4b; stroke-width: 1.5; stroke-linecap: square"/>
   </g>
   <g id="line2d_17">
    <path d="M 117.082918 185.767614 
L 117.082918 177.924788 
" clip-path="url(#pa849e19920)" style="fill: none; stroke: #4b4b4b; stroke-width: 1.5; stroke-linecap: square"/>
   </g>
   <g id="line2d_18">
    <path d="M 110.245467 218.739039 
L 123.920369 218.739039 
" clip-path="url(#pa849e19920)" style="fill: none; stroke: #4b4b4b; stroke-width: 1.5; stroke-linecap: square"/>
   </g>
   <g id="line2d_19">
    <path d="M 110.245467 177.924788 
L 123.920369 177.924788 
" clip-path="url(#pa849e19920)" style="fill: none; stroke: #4b4b4b; stroke-width: 1.5; stroke-linecap: square"/>
   </g>
   <g id="line2d_20">
    <path d="M 158.944864 171.621177 
L 158.944864 184.891792 
" clip-path="url(#pa849e19920)" style="fill: none; stroke: #4b4b4b; stroke-width: 1.5; stroke-linecap: square"/>
   </g>
   <g id="line2d_21">
    <path d="M 158.944864 159.601307 
L 158.944864 141.748264 
" clip-path="url(#pa849e19920)" style="fill: none; stroke: #4b4b4b; stroke-width: 1.5; stroke-linecap: square"/>
   </g>
   <g id="line2d_22">
    <path d="M 152.107413 184.891792 
L 165.782315 184.891792 
" clip-path="url(#pa849e19920)" style="fill: none; stroke: #4b4b4b; stroke-width: 1.5; stroke-linecap: square"/>
   </g>
   <g id="line2d_23">
    <path d="M 152.107413 141.748264 
L 165.782315 141.748264 
" clip-path="url(#pa849e19920)" style="fill: none; stroke: #4b4b4b; stroke-width: 1.5; stroke-linecap: square"/>
   </g>
   <g id="line2d_24">
    <path d="M 186.852827 161.167947 
L 186.852827 167.886825 
" clip-path="url(#pa849e19920)" style="fill: none; stroke: #4b4b4b; stroke-width: 1.5; stroke-linecap: square"/>
   </g>
   <g id="line2d_25">
    <path d="M 186.852827 144.059138 
L 186.852827 138.501089 
" clip-path="url(#pa849e19920)" style="fill: none; stroke: #4b4b4b; stroke-width: 1.5; stroke-linecap: square"/>
   </g>
   <g id="line2d_26">
    <path d="M 180.015376 167.886825 
L 193.690278 167.886825 
" clip-path="url(#pa849e19920)" style="fill: none; stroke: #4b4b4b; stroke-width: 1.5; stroke-linecap: square"/>
   </g>
   <g id="line2d_27">
    <path d="M 180.015376 138.501089 
L 193.690278 138.501089 
" clip-path="url(#pa849e19920)" style="fill: none; stroke: #4b4b4b; stroke-width: 1.5; stroke-linecap: square"/>
   </g>
   <g id="line2d_28">
    <path d="M 228.714773 151.071687 
L 228.714773 163.210783 
" clip-path="url(#pa849e19920)" style="fill: none; stroke: #4b4b4b; stroke-width: 1.5; stroke-linecap: square"/>
   </g>
   <g id="line2d_29">
    <path d="M 228.714773 129.299835 
L 228.714773 110.329249 
" clip-path="url(#pa849e19920)" style="fill: none; stroke: #4b4b4b; stroke-width: 1.5; stroke-linecap: square"/>
   </g>
   <g id="line2d_30">
    <path d="M 221.877322 163.210783 
L 235.552224 163.210783 
" clip-path="url(#pa849e19920)" style="fill: none; stroke: #4b4b4b; stroke-width: 1.5; stroke-linecap: square"/>
   </g>
   <g id="line2d_31">
    <path d="M 221.877322 110.329249 
L 235.552224 110.329249 
" clip-path="url(#pa849e19920)" style="fill: none; stroke: #4b4b4b; stroke-width: 1.5; stroke-linecap: square"/>
   </g>
   <g id="line2d_32">
    <path d="M 256.622736 138.261246 
L 256.622736 158.611905 
" clip-path="url(#pa849e19920)" style="fill: none; stroke: #4b4b4b; stroke-width: 1.5; stroke-linecap: square"/>
   </g>
   <g id="line2d_33">
    <path d="M 256.622736 123.762553 
L 256.622736 112.925329 
" clip-path="url(#pa849e19920)" style="fill: none; stroke: #4b4b4b; stroke-width: 1.5; stroke-linecap: square"/>
   </g>
   <g id="line2d_34">
    <path d="M 249.785285 158.611905 
L 263.460187 158.611905 
" clip-path="url(#pa849e19920)" style="fill: none; stroke: #4b4b4b; stroke-width: 1.5; stroke-linecap: square"/>
   </g>
   <g id="line2d_35">
    <path d="M 249.785285 112.925329 
L 263.460187 112.925329 
" clip-path="url(#pa849e19920)" style="fill: none; stroke: #4b4b4b; stroke-width: 1.5; stroke-linecap: square"/>
   </g>
   <g id="line2d_36">
    <path d="M 298.484682 128.270727 
L 298.484682 135.576957 
" clip-path="url(#pa849e19920)" style="fill: none; stroke: #4b4b4b; stroke-width: 1.5; stroke-linecap: square"/>
   </g>
   <g id="line2d_37">
    <path d="M 298.484682 104.402408 
L 298.484682 90.159312 
" clip-path="url(#pa849e19920)" style="fill: none; stroke: #4b4b4b; stroke-width: 1.5; stroke-linecap: square"/>
   </g>
   <g id="line2d_38">
    <path d="M 291.647231 135.576957 
L 305.322133 135.576957 
" clip-path="url(#pa849e19920)" style="fill: none; stroke: #4b4b4b; stroke-width: 1.5; stroke-linecap: square"/>
   </g>
   <g id="line2d_39">
    <path d="M 291.647231 90.159312 
L 305.322133 90.159312 
" clip-path="url(#pa849e19920)" style="fill: none; stroke: #4b4b4b; stroke-width: 1.5; stroke-linecap: square"/>
   </g>
   <g id="line2d_40">
    <path d="M 326.392645 115.168761 
L 326.392645 121.620387 
" clip-path="url(#pa849e19920)" style="fill: none; stroke: #4b4b4b; stroke-width: 1.5; stroke-linecap: square"/>
   </g>
   <g id="line2d_41">
    <path d="M 326.392645 104.936195 
L 326.392645 91.073582 
" clip-path="url(#pa849e19920)" style="fill: none; stroke: #4b4b4b; stroke-width: 1.5; stroke-linecap: square"/>
   </g>
   <g id="line2d_42">
    <path d="M 319.555194 121.620387 
L 333.230097 121.620387 
" clip-path="url(#pa849e19920)" style="fill: none; stroke: #4b4b4b; stroke-width: 1.5; stroke-linecap: square"/>
   </g>
   <g id="line2d_43">
    <path d="M 319.555194 91.073582 
L 333.230097 91.073582 
" clip-path="url(#pa849e19920)" style="fill: none; stroke: #4b4b4b; stroke-width: 1.5; stroke-linecap: square"/>
   </g>
   <g id="line2d_44">
    <path d="M 158.944864 123.066113 
L 158.944864 120.237359 
L 186.852827 120.237359 
L 186.852827 123.066113 
" clip-path="url(#pa849e19920)" style="fill: none; stroke: #333333; stroke-width: 1.5; stroke-linecap: square"/>
   </g>
   <g id="line2d_45">
    <path d="M 89.174955 147.020939 
L 89.174955 144.192185 
L 117.082918 144.192185 
L 117.082918 147.020939 
" clip-path="url(#pa849e19920)" style="fill: none; stroke: #333333; stroke-width: 1.5; stroke-linecap: square"/>
   </g>
   <g id="line2d_46">
    <path d="M 228.714773 101.842987 
L 228.714773 99.014233 
L 256.622736 99.014233 
L 256.622736 101.842987 
" clip-path="url(#pa849e19920)" style="fill: none; stroke: #333333; stroke-width: 1.5; stroke-linecap: square"/>
   </g>
   <g id="line2d_47">
    <path d="M 298.484682 81.67305 
L 298.484682 78.844296 
L 326.392645 78.844296 
L 326.392645 81.67305 
" clip-path="url(#pa849e19920)" style="fill: none; stroke: #333333; stroke-width: 1.5; stroke-linecap: square"/>
   </g>
   <g id="line2d_48">
    <path d="M 75.500052 189.704955 
L 102.849857 189.704955 
" clip-path="url(#pa849e19920)" style="fill: none; stroke: #4b4b4b; stroke-width: 1.5; stroke-linecap: square"/>
   </g>
   <g id="line2d_49">
    <path d="M 103.408016 191.381327 
L 130.75782 191.381327 
" clip-path="url(#pa849e19920)" style="fill: none; stroke: #4b4b4b; stroke-width: 1.5; stroke-linecap: square"/>
   </g>
   <g id="line2d_50">
    <path d="M 145.269961 165.349759 
L 172.619766 165.349759 
" clip-path="url(#pa849e19920)" style="fill: none; stroke: #4b4b4b; stroke-width: 1.5; stroke-linecap: square"/>
   </g>
   <g id="line2d_51">
    <path d="M 173.177925 152.721988 
L 200.527729 152.721988 
" clip-path="url(#pa849e19920)" style="fill: none; stroke: #4b4b4b; stroke-width: 1.5; stroke-linecap: square"/>
   </g>
   <g id="line2d_52">
    <path d="M 215.039871 137.815317 
L 242.389675 137.815317 
" clip-path="url(#pa849e19920)" style="fill: none; stroke: #4b4b4b; stroke-width: 1.5; stroke-linecap: square"/>
   </g>
   <g id="line2d_53">
    <path d="M 242.947834 130.262512 
L 270.297639 130.262512 
" clip-path="url(#pa849e19920)" style="fill: none; stroke: #4b4b4b; stroke-width: 1.5; stroke-linecap: square"/>
   </g>
   <g id="line2d_54">
    <path d="M 284.80978 113.193575 
L 312.159584 113.193575 
" clip-path="url(#pa849e19920)" style="fill: none; stroke: #4b4b4b; stroke-width: 1.5; stroke-linecap: square"/>
   </g>
   <g id="line2d_55">
    <path d="M 312.717743 110.241039 
L 340.067548 110.241039 
" clip-path="url(#pa849e19920)" style="fill: none; stroke: #4b4b4b; stroke-width: 1.5; stroke-linecap: square"/>
   </g>
   <g id="patch_13">
    <path d="M 54.29 266.065172 
L 54.29 32.64 
" style="fill: none; stroke: #000000; stroke-width: 0.8; stroke-linejoin: miter; stroke-linecap: square"/>
   </g>
   <g id="patch_14">
    <path d="M 361.2776 266.065172 
L 361.2776 32.64 
" style="fill: none; stroke: #000000; stroke-width: 0.8; stroke-linejoin: miter; stroke-linecap: square"/>
   </g>
   <g id="patch_15">
    <path d="M 54.29 266.065172 
L 361.2776 266.065172 
" style="fill: none; stroke: #000000; stroke-width: 0.8; stroke-linejoin: miter; stroke-linecap: square"/>
   </g>
   <g id="patch_16">
    <path d="M 54.29 32.64 
L 361.2776 32.64 
" style="fill: none; stroke: #000000; stroke-width: 0.8; stroke-linejoin: miter; stroke-linecap: square"/>
   </g>
   <g id="text_14">
    <!-- **** -->
    <g transform="translate(162.898845 117.157671) scale(0.1 -0.1)">
     <defs>
      <path id="DejaVuSans-2a" d="M 3009 3897 
L 1888 3291 
L 3009 2681 
L 2828 2375 
L 1778 3009 
L 1778 1831 
L 1422 1831 
L 1422 3009 
L 372 2375 
L 191 2681 
L 1313 3291 
L 191 3897 
L 372 4206 
L 1422 3572 
L 1422 4750 
L 1778 4750 
L 1778 3572 
L 2828 4206 
L 3009 3897 
z
" transform="scale(0.015625)"/>
     </defs>
     <use xlink:href="#DejaVuSans-2a"/>
     <use xlink:href="#DejaVuSans-2a" x="50"/>
     <use xlink:href="#DejaVuSans-2a" x="100"/>
     <use xlink:href="#DejaVuSans-2a" x="150"/>
    </g>
   </g>
   <g id="text_15">
    <!-- ns -->
    <g transform="translate(97.355499 141.112498) scale(0.1 -0.1)">
     <defs>
      <path id="DejaVuSans-73" d="M 2834 3397 
L 2834 2853 
Q 2591 2978 2328 3040 
Q 2066 3103 1784 3103 
Q 1356 3103 1142 2972 
Q 928 2841 928 2578 
Q 928 2378 1081 2264 
Q 1234 2150 1697 2047 
L 1894 2003 
Q 2506 1872 2764 1633 
Q 3022 1394 3022 966 
Q 3022 478 2636 193 
Q 2250 -91 1575 -91 
Q 1294 -91 989 -36 
Q 684 19 347 128 
L 347 722 
Q 666 556 975 473 
Q 1284 391 1588 391 
Q 1994 391 2212 530 
Q 2431 669 2431 922 
Q 2431 1156 2273 1281 
Q 2116 1406 1581 1522 
L 1381 1569 
Q 847 1681 609 1914 
Q 372 2147 372 2553 
Q 372 3047 722 3315 
Q 1072 3584 1716 3584 
Q 2034 3584 2315 3537 
Q 2597 3491 2834 3397 
z
" transform="scale(0.015625)"/>
     </defs>
     <use xlink:href="#DejaVuSans-6e"/>
     <use xlink:href="#DejaVuSans-73" x="63.378906"/>
    </g>
   </g>
   <g id="text_16">
    <!-- **** -->
    <g transform="translate(232.668755 95.934546) scale(0.1 -0.1)">
     <use xlink:href="#DejaVuSans-2a"/>
     <use xlink:href="#DejaVuSans-2a" x="50"/>
     <use xlink:href="#DejaVuSans-2a" x="100"/>
     <use xlink:href="#DejaVuSans-2a" x="150"/>
    </g>
   </g>
   <g id="text_17">
    <!-- ns -->
    <g transform="translate(306.665226 75.764608) scale(0.1 -0.1)">
     <use xlink:href="#DejaVuSans-6e"/>
     <use xlink:href="#DejaVuSans-73" x="63.378906"/>
    </g>
   </g>
   <g id="text_18">
    <!-- PScope EVI by NDVI Range 2022 -->
    <g transform="translate(45.082237 26.64) scale(0.2 -0.2)">
     <defs>
      <path id="DejaVuSans-50" d="M 1259 4147 
L 1259 2394 
L 2053 2394 
Q 2494 2394 2734 2622 
Q 2975 2850 2975 3272 
Q 2975 3691 2734 3919 
Q 2494 4147 2053 4147 
L 1259 4147 
z
M 628 4666 
L 2053 4666 
Q 2838 4666 3239 4311 
Q 3641 3956 3641 3272 
Q 3641 2581 3239 2228 
Q 2838 1875 2053 1875 
L 1259 1875 
L 1259 0 
L 628 0 
L 628 4666 
z
" transform="scale(0.015625)"/>
      <path id="DejaVuSans-53" d="M 3425 4513 
L 3425 3897 
Q 3066 4069 2747 4153 
Q 2428 4238 2131 4238 
Q 1616 4238 1336 4038 
Q 1056 3838 1056 3469 
Q 1056 3159 1242 3001 
Q 1428 2844 1947 2747 
L 2328 2669 
Q 3034 2534 3370 2195 
Q 3706 1856 3706 1288 
Q 3706 609 3251 259 
Q 2797 -91 1919 -91 
Q 1588 -91 1214 -16 
Q 841 59 441 206 
L 441 856 
Q 825 641 1194 531 
Q 1563 422 1919 422 
Q 2459 422 2753 634 
Q 3047 847 3047 1241 
Q 3047 1584 2836 1778 
Q 2625 1972 2144 2069 
L 1759 2144 
Q 1053 2284 737 2584 
Q 422 2884 422 3419 
Q 422 4038 858 4394 
Q 1294 4750 2059 4750 
Q 2388 4750 2728 4690 
Q 3069 4631 3425 4513 
z
" transform="scale(0.015625)"/>
      <path id="DejaVuSans-63" d="M 3122 3366 
L 3122 2828 
Q 2878 2963 2633 3030 
Q 2388 3097 2138 3097 
Q 1578 3097 1268 2742 
Q 959 2388 959 1747 
Q 959 1106 1268 751 
Q 1578 397 2138 397 
Q 2388 397 2633 464 
Q 2878 531 3122 666 
L 3122 134 
Q 2881 22 2623 -34 
Q 2366 -91 2075 -91 
Q 1284 -91 818 406 
Q 353 903 353 1747 
Q 353 2603 823 3093 
Q 1294 3584 2113 3584 
Q 2378 3584 2631 3529 
Q 2884 3475 3122 3366 
z
" transform="scale(0.015625)"/>
      <path id="DejaVuSans-6f" d="M 1959 3097 
Q 1497 3097 1228 2736 
Q 959 2375 959 1747 
Q 959 1119 1226 758 
Q 1494 397 1959 397 
Q 2419 397 2687 759 
Q 2956 1122 2956 1747 
Q 2956 2369 2687 2733 
Q 2419 3097 1959 3097 
z
M 1959 3584 
Q 2709 3584 3137 3096 
Q 3566 2609 3566 1747 
Q 3566 888 3137 398 
Q 2709 -91 1959 -91 
Q 1206 -91 779 398 
Q 353 888 353 1747 
Q 353 2609 779 3096 
Q 1206 3584 1959 3584 
z
" transform="scale(0.015625)"/>
      <path id="DejaVuSans-70" d="M 1159 525 
L 1159 -1331 
L 581 -1331 
L 581 3500 
L 1159 3500 
L 1159 2969 
Q 1341 3281 1617 3432 
Q 1894 3584 2278 3584 
Q 2916 3584 3314 3078 
Q 3713 2572 3713 1747 
Q 3713 922 3314 415 
Q 2916 -91 2278 -91 
Q 1894 -91 1617 61 
Q 1341 213 1159 525 
z
M 3116 1747 
Q 3116 2381 2855 2742 
Q 2594 3103 2138 3103 
Q 1681 3103 1420 2742 
Q 1159 2381 1159 1747 
Q 1159 1113 1420 752 
Q 1681 391 2138 391 
Q 2594 391 2855 752 
Q 3116 1113 3116 1747 
z
" transform="scale(0.015625)"/>
      <path id="DejaVuSans-62" d="M 3116 1747 
Q 3116 2381 2855 2742 
Q 2594 3103 2138 3103 
Q 1681 3103 1420 2742 
Q 1159 2381 1159 1747 
Q 1159 1113 1420 752 
Q 1681 391 2138 391 
Q 2594 391 2855 752 
Q 3116 1113 3116 1747 
z
M 1159 2969 
Q 1341 3281 1617 3432 
Q 1894 3584 2278 3584 
Q 2916 3584 3314 3078 
Q 3713 2572 3713 1747 
Q 3713 922 3314 415 
Q 2916 -91 2278 -91 
Q 1894 -91 1617 61 
Q 1341 213 1159 525 
L 1159 0 
L 581 0 
L 581 4863 
L 1159 4863 
L 1159 2969 
z
" transform="scale(0.015625)"/>
      <path id="DejaVuSans-79" d="M 2059 -325 
Q 1816 -950 1584 -1140 
Q 1353 -1331 966 -1331 
L 506 -1331 
L 506 -850 
L 844 -850 
Q 1081 -850 1212 -737 
Q 1344 -625 1503 -206 
L 1606 56 
L 191 3500 
L 800 3500 
L 1894 763 
L 2988 3500 
L 3597 3500 
L 2059 -325 
z
" transform="scale(0.015625)"/>
      <path id="DejaVuSans-32" d="M 1228 531 
L 3431 531 
L 3431 0 
L 469 0 
L 469 531 
Q 828 903 1448 1529 
Q 2069 2156 2228 2338 
Q 2531 2678 2651 2914 
Q 2772 3150 2772 3378 
Q 2772 3750 2511 3984 
Q 2250 4219 1831 4219 
Q 1534 4219 1204 4116 
Q 875 4013 500 3803 
L 500 4441 
Q 881 4594 1212 4672 
Q 1544 4750 1819 4750 
Q 2544 4750 2975 4387 
Q 3406 4025 3406 3419 
Q 3406 3131 3298 2873 
Q 3191 2616 2906 2266 
Q 2828 2175 2409 1742 
Q 1991 1309 1228 531 
z
" transform="scale(0.015625)"/>
     </defs>
     <use xlink:href="#DejaVuSans-50"/>
     <use xlink:href="#DejaVuSans-53" x="60.302734"/>
     <use xlink:href="#DejaVuSans-63" x="123.779297"/>
     <use xlink:href="#DejaVuSans-6f" x="178.759766"/>
     <use xlink:href="#DejaVuSans-70" x="239.941406"/>
     <use xlink:href="#DejaVuSans-65" x="303.417969"/>
     <use xlink:href="#DejaVuSans-20" x="364.941406"/>
     <use xlink:href="#DejaVuSans-45" x="396.728516"/>
     <use xlink:href="#DejaVuSans-56" x="459.912109"/>
     <use xlink:href="#DejaVuSans-49" x="528.320312"/>
     <use xlink:href="#DejaVuSans-20" x="557.8125"/>
     <use xlink:href="#DejaVuSans-62" x="589.599609"/>
     <use xlink:href="#DejaVuSans-79" x="653.076172"/>
     <use xlink:href="#DejaVuSans-20" x="712.255859"/>
     <use xlink:href="#DejaVuSans-4e" x="744.042969"/>
     <use xlink:href="#DejaVuSans-44" x="818.847656"/>
     <use xlink:href="#DejaVuSans-56" x="894.099609"/>
     <use xlink:href="#DejaVuSans-49" x="962.507812"/>
     <use xlink:href="#DejaVuSans-20" x="992"/>
     <use xlink:href="#DejaVuSans-52" x="1023.787109"/>
     <use xlink:href="#DejaVuSans-61" x="1091.019531"/>
     <use xlink:href="#DejaVuSans-6e" x="1152.298828"/>
     <use xlink:href="#DejaVuSans-67" x="1215.677734"/>
     <use xlink:href="#DejaVuSans-65" x="1279.154297"/>
     <use xlink:href="#DejaVuSans-20" x="1340.677734"/>
     <use xlink:href="#DejaVuSans-32" x="1372.464844"/>
     <use xlink:href="#DejaVuSans-30" x="1436.087891"/>
     <use xlink:href="#DejaVuSans-32" x="1499.710938"/>
     <use xlink:href="#DejaVuSans-32" x="1563.333984"/>
    </g>
   </g>
   <g id="legend_1">
    <g id="patch_17">
     <path d="M 374.417352 84.674375 
L 446.973602 84.674375 
Q 448.973602 84.674375 448.973602 82.674375 
L 448.973602 39.64 
Q 448.973602 37.64 446.973602 37.64 
L 374.417352 37.64 
Q 372.417352 37.64 372.417352 39.64 
L 372.417352 82.674375 
Q 372.417352 84.674375 374.417352 84.674375 
z
" style="fill: #ffffff; opacity: 0.8; stroke: #cccccc; stroke-linejoin: miter"/>
    </g>
    <g id="text_19">
     <!-- GDM Severity -->
     <g transform="translate(376.417352 49.238437) scale(0.1 -0.1)">
      <defs>
       <path id="DejaVuSans-47" d="M 3809 666 
L 3809 1919 
L 2778 1919 
L 2778 2438 
L 4434 2438 
L 4434 434 
Q 4069 175 3628 42 
Q 3188 -91 2688 -91 
Q 1594 -91 976 548 
Q 359 1188 359 2328 
Q 359 3472 976 4111 
Q 1594 4750 2688 4750 
Q 3144 4750 3555 4637 
Q 3966 4525 4313 4306 
L 4313 3634 
Q 3963 3931 3569 4081 
Q 3175 4231 2741 4231 
Q 1884 4231 1454 3753 
Q 1025 3275 1025 2328 
Q 1025 1384 1454 906 
Q 1884 428 2741 428 
Q 3075 428 3337 486 
Q 3600 544 3809 666 
z
" transform="scale(0.015625)"/>
       <path id="DejaVuSans-4d" d="M 628 4666 
L 1569 4666 
L 2759 1491 
L 3956 4666 
L 4897 4666 
L 4897 0 
L 4281 0 
L 4281 4097 
L 3078 897 
L 2444 897 
L 1241 4097 
L 1241 0 
L 628 0 
L 628 4666 
z
" transform="scale(0.015625)"/>
       <path id="DejaVuSans-76" d="M 191 3500 
L 800 3500 
L 1894 563 
L 2988 3500 
L 3597 3500 
L 2284 0 
L 1503 0 
L 191 3500 
z
" transform="scale(0.015625)"/>
       <path id="DejaVuSans-72" d="M 2631 2963 
Q 2534 3019 2420 3045 
Q 2306 3072 2169 3072 
Q 1681 3072 1420 2755 
Q 1159 2438 1159 1844 
L 1159 0 
L 581 0 
L 581 3500 
L 1159 3500 
L 1159 2956 
Q 1341 3275 1631 3429 
Q 1922 3584 2338 3584 
Q 2397 3584 2469 3576 
Q 2541 3569 2628 3553 
L 2631 2963 
z
" transform="scale(0.015625)"/>
       <path id="DejaVuSans-69" d="M 603 3500 
L 1178 3500 
L 1178 0 
L 603 0 
L 603 3500 
z
M 603 4863 
L 1178 4863 
L 1178 4134 
L 603 4134 
L 603 4863 
z
" transform="scale(0.015625)"/>
       <path id="DejaVuSans-74" d="M 1172 4494 
L 1172 3500 
L 2356 3500 
L 2356 3053 
L 1172 3053 
L 1172 1153 
Q 1172 725 1289 603 
Q 1406 481 1766 481 
L 2356 481 
L 2356 0 
L 1766 0 
Q 1100 0 847 248 
Q 594 497 594 1153 
L 594 3053 
L 172 3053 
L 172 3500 
L 594 3500 
L 594 4494 
L 1172 4494 
z
" transform="scale(0.015625)"/>
      </defs>
      <use xlink:href="#DejaVuSans-47"/>
      <use xlink:href="#DejaVuSans-44" x="77.490234"/>
      <use xlink:href="#DejaVuSans-4d" x="154.492188"/>
      <use xlink:href="#DejaVuSans-20" x="240.771484"/>
      <use xlink:href="#DejaVuSans-53" x="272.558594"/>
      <use xlink:href="#DejaVuSans-65" x="336.035156"/>
      <use xlink:href="#DejaVuSans-76" x="397.558594"/>
      <use xlink:href="#DejaVuSans-65" x="456.738281"/>
      <use xlink:href="#DejaVuSans-72" x="518.261719"/>
      <use xlink:href="#DejaVuSans-69" x="559.375"/>
      <use xlink:href="#DejaVuSans-74" x="587.158203"/>
      <use xlink:href="#DejaVuSans-79" x="626.367188"/>
     </g>
    </g>
    <g id="patch_18">
     <path d="M 377.202508 63.916562 
L 397.202508 63.916562 
L 397.202508 56.916562 
L 377.202508 56.916562 
z
" style="fill: #4caf50; stroke: #4caf50; stroke-linejoin: miter"/>
    </g>
    <g id="text_20">
     <!-- &lt;=10% -->
     <g transform="translate(405.202508 63.916562) scale(0.1 -0.1)">
      <defs>
       <path id="DejaVuSans-3d" d="M 678 2906 
L 4684 2906 
L 4684 2381 
L 678 2381 
L 678 2906 
z
M 678 1631 
L 4684 1631 
L 4684 1100 
L 678 1100 
L 678 1631 
z
" transform="scale(0.015625)"/>
       <path id="DejaVuSans-25" d="M 4653 2053 
Q 4381 2053 4226 1822 
Q 4072 1591 4072 1178 
Q 4072 772 4226 539 
Q 4381 306 4653 306 
Q 4919 306 5073 539 
Q 5228 772 5228 1178 
Q 5228 1588 5073 1820 
Q 4919 2053 4653 2053 
z
M 4653 2450 
Q 5147 2450 5437 2106 
Q 5728 1763 5728 1178 
Q 5728 594 5436 251 
Q 5144 -91 4653 -91 
Q 4153 -91 3862 251 
Q 3572 594 3572 1178 
Q 3572 1766 3864 2108 
Q 4156 2450 4653 2450 
z
M 1428 4353 
Q 1159 4353 1004 4120 
Q 850 3888 850 3481 
Q 850 3069 1003 2837 
Q 1156 2606 1428 2606 
Q 1700 2606 1854 2837 
Q 2009 3069 2009 3481 
Q 2009 3884 1853 4118 
Q 1697 4353 1428 4353 
z
M 4250 4750 
L 4750 4750 
L 1831 -91 
L 1331 -91 
L 4250 4750 
z
M 1428 4750 
Q 1922 4750 2215 4408 
Q 2509 4066 2509 3481 
Q 2509 2891 2217 2550 
Q 1925 2209 1428 2209 
Q 931 2209 642 2551 
Q 353 2894 353 3481 
Q 353 4063 643 4406 
Q 934 4750 1428 4750 
z
" transform="scale(0.015625)"/>
      </defs>
      <use xlink:href="#DejaVuSans-3c"/>
      <use xlink:href="#DejaVuSans-3d" x="83.789062"/>
      <use xlink:href="#DejaVuSans-31" x="167.578125"/>
      <use xlink:href="#DejaVuSans-30" x="231.201172"/>
      <use xlink:href="#DejaVuSans-25" x="294.824219"/>
     </g>
    </g>
    <g id="patch_19">
     <path d="M 377.202508 78.594687 
L 397.202508 78.594687 
L 397.202508 71.594687 
L 377.202508 71.594687 
z
" style="fill: #ffdd33; stroke: #ffdd33; stroke-linejoin: miter"/>
    </g>
    <g id="text_21">
     <!-- &gt;10% -->
     <g transform="translate(405.202508 78.594687) scale(0.1 -0.1)">
      <defs>
       <path id="DejaVuSans-3e" d="M 678 3150 
L 678 3719 
L 4684 2266 
L 4684 1747 
L 678 294 
L 678 863 
L 3897 2003 
L 678 3150 
z
" transform="scale(0.015625)"/>
      </defs>
      <use xlink:href="#DejaVuSans-3e"/>
      <use xlink:href="#DejaVuSans-31" x="83.789062"/>
      <use xlink:href="#DejaVuSans-30" x="147.412109"/>
      <use xlink:href="#DejaVuSans-25" x="211.035156"/>
     </g>
    </g>
   </g>
  </g>
  <g id="text_22">
   <!-- ns : not significant -->
   <g transform="translate(423.936 119.0505) scale(0.12 -0.12)">
    <defs>
     <path id="DejaVuSans-3a" d="M 750 794 
L 1409 794 
L 1409 0 
L 750 0 
L 750 794 
z
M 750 3309 
L 1409 3309 
L 1409 2516 
L 750 2516 
L 750 3309 
z
" transform="scale(0.015625)"/>
     <path id="DejaVuSans-66" d="M 2375 4863 
L 2375 4384 
L 1825 4384 
Q 1516 4384 1395 4259 
Q 1275 4134 1275 3809 
L 1275 3500 
L 2222 3500 
L 2222 3053 
L 1275 3053 
L 1275 0 
L 697 0 
L 697 3053 
L 147 3053 
L 147 3500 
L 697 3500 
L 697 3744 
Q 697 4328 969 4595 
Q 1241 4863 1831 4863 
L 2375 4863 
z
" transform="scale(0.015625)"/>
    </defs>
    <use xlink:href="#DejaVuSans-6e"/>
    <use xlink:href="#DejaVuSans-73" x="63.378906"/>
    <use xlink:href="#DejaVuSans-20" x="115.478516"/>
    <use xlink:href="#DejaVuSans-3a" x="147.265625"/>
    <use xlink:href="#DejaVuSans-20" x="180.957031"/>
    <use xlink:href="#DejaVuSans-6e" x="212.744141"/>
    <use xlink:href="#DejaVuSans-6f" x="276.123047"/>
    <use xlink:href="#DejaVuSans-74" x="337.304688"/>
    <use xlink:href="#DejaVuSans-20" x="376.513672"/>
    <use xlink:href="#DejaVuSans-73" x="408.300781"/>
    <use xlink:href="#DejaVuSans-69" x="460.400391"/>
    <use xlink:href="#DejaVuSans-67" x="488.183594"/>
    <use xlink:href="#DejaVuSans-6e" x="551.660156"/>
    <use xlink:href="#DejaVuSans-69" x="615.039062"/>
    <use xlink:href="#DejaVuSans-66" x="642.822266"/>
    <use xlink:href="#DejaVuSans-69" x="678.027344"/>
    <use xlink:href="#DejaVuSans-63" x="705.810547"/>
    <use xlink:href="#DejaVuSans-61" x="760.791016"/>
    <use xlink:href="#DejaVuSans-6e" x="822.070312"/>
    <use xlink:href="#DejaVuSans-74" x="885.449219"/>
   </g>
   <!--  * : p &lt; 0.05 -->
   <g transform="translate(423.936 132.487875) scale(0.12 -0.12)">
    <use xlink:href="#DejaVuSans-20"/>
    <use xlink:href="#DejaVuSans-2a" x="31.787109"/>
    <use xlink:href="#DejaVuSans-20" x="81.787109"/>
    <use xlink:href="#DejaVuSans-3a" x="113.574219"/>
    <use xlink:href="#DejaVuSans-20" x="147.265625"/>
    <use xlink:href="#DejaVuSans-70" x="179.052734"/>
    <use xlink:href="#DejaVuSans-20" x="242.529297"/>
    <use xlink:href="#DejaVuSans-3c" x="274.316406"/>
    <use xlink:href="#DejaVuSans-20" x="358.105469"/>
    <use xlink:href="#DejaVuSans-30" x="389.892578"/>
    <use xlink:href="#DejaVuSans-2e" x="453.515625"/>
    <use xlink:href="#DejaVuSans-30" x="485.302734"/>
    <use xlink:href="#DejaVuSans-35" x="548.925781"/>
   </g>
   <!--  ** : p &lt; 0.01 -->
   <g transform="translate(423.936 145.92525) scale(0.12 -0.12)">
    <use xlink:href="#DejaVuSans-20"/>
    <use xlink:href="#DejaVuSans-2a" x="31.787109"/>
    <use xlink:href="#DejaVuSans-2a" x="81.787109"/>
    <use xlink:href="#DejaVuSans-20" x="131.787109"/>
    <use xlink:href="#DejaVuSans-3a" x="163.574219"/>
    <use xlink:href="#DejaVuSans-20" x="197.265625"/>
    <use xlink:href="#DejaVuSans-70" x="229.052734"/>
    <use xlink:href="#DejaVuSans-20" x="292.529297"/>
    <use xlink:href="#DejaVuSans-3c" x="324.316406"/>
    <use xlink:href="#DejaVuSans-20" x="408.105469"/>
    <use xlink:href="#DejaVuSans-30" x="439.892578"/>
    <use xlink:href="#DejaVuSans-2e" x="503.515625"/>
    <use xlink:href="#DejaVuSans-30" x="535.302734"/>
    <use xlink:href="#DejaVuSans-31" x="598.925781"/>
   </g>
   <!--  *** : p &lt; 0.001 -->
   <g transform="translate(423.936 159.362625) scale(0.12 -0.12)">
    <use xlink:href="#DejaVuSans-20"/>
    <use xlink:href="#DejaVuSans-2a" x="31.787109"/>
    <use xlink:href="#DejaVuSans-2a" x="81.787109"/>
    <use xlink:href="#DejaVuSans-2a" x="131.787109"/>
    <use xlink:href="#DejaVuSans-20" x="181.787109"/>
    <use xlink:href="#DejaVuSans-3a" x="213.574219"/>
    <use xlink:href="#DejaVuSans-20" x="247.265625"/>
    <use xlink:href="#DejaVuSans-70" x="279.052734"/>
    <use xlink:href="#DejaVuSans-20" x="342.529297"/>
    <use xlink:href="#DejaVuSans-3c" x="374.316406"/>
    <use xlink:href="#DejaVuSans-20" x="458.105469"/>
    <use xlink:href="#DejaVuSans-30" x="489.892578"/>
    <use xlink:href="#DejaVuSans-2e" x="553.515625"/>
    <use xlink:href="#DejaVuSans-30" x="585.302734"/>
    <use xlink:href="#DejaVuSans-30" x="648.925781"/>
    <use xlink:href="#DejaVuSans-31" x="712.548828"/>
   </g>
   <!--  ****: p &lt;= 1.00e-04 -->
   <g transform="translate(423.936 172.8) scale(0.12 -0.12)">
    <use xlink:href="#DejaVuSans-20"/>
    <use xlink:href="#DejaVuSans-2a" x="31.787109"/>
    <use xlink:href="#DejaVuSans-2a" x="81.787109"/>
    <use xlink:href="#DejaVuSans-2a" x="131.787109"/>
    <use xlink:href="#DejaVuSans-2a" x="181.787109"/>
    <use xlink:href="#DejaVuSans-3a" x="231.787109"/>
    <use xlink:href="#DejaVuSans-20" x="265.478516"/>
    <use xlink:href="#DejaVuSans-70" x="297.265625"/>
    <use xlink:href="#DejaVuSans-20" x="360.742188"/>
    <use xlink:href="#DejaVuSans-3c" x="392.529297"/>
    <use xlink:href="#DejaVuSans-3d" x="476.318359"/>
    <use xlink:href="#DejaVuSans-20" x="560.107422"/>
    <use xlink:href="#DejaVuSans-31" x="591.894531"/>
    <use xlink:href="#DejaVuSans-2e" x="655.517578"/>
    <use xlink:href="#DejaVuSans-30" x="687.304688"/>
    <use xlink:href="#DejaVuSans-30" x="750.927734"/>
    <use xlink:href="#DejaVuSans-65" x="814.550781"/>
    <use xlink:href="#DejaVuSans-2d" x="876.074219"/>
    <use xlink:href="#DejaVuSans-30" x="912.158203"/>
    <use xlink:href="#DejaVuSans-34" x="975.78125"/>
   </g>
  </g>
 </g>
 <defs>
  <clipPath id="pa849e19920">
   <rect x="54.29" y="32.64" width="306.9876" height="233.425172"/>
  </clipPath>
 </defs>
</svg>
